<?xml version="1.0" encoding="UTF-8"?>
<svg version="1.1" xmlns="http://www.w3.org/2000/svg" width="3040" height="2604">
<path d="M0 0 C1003.2 0 2006.4 0 3040 0 C3040 859.32 3040 1718.64 3040 2604 C2036.8 2604 1033.6 2604 0 2604 C0 1744.68 0 885.36 0 0 Z " fill="#000000" transform="translate(0,0)"/>
<path d="M0 0 C85.44853062 -0.02532898 170.89706149 -0.04973849 278.34057617 -0.0793457 C279.70236107 -0.07972002 279.70236107 -0.07972002 281.09165677 -0.08010189 C378.78934843 -0.1069534 476.4870404 -0.13269792 864.0265178 -0.21119501 C867.2615784 -0.21171614 870.496639 -0.21223832 873.7316996 -0.21276085 C965.39643385 -0.22756473 1057.06116822 -0.24139898 1148.7259028 -0.25393464 C1152.11843491 -0.25439859 1155.51096703 -0.2548626 1158.90349914 -0.25532665 C1160.58423984 -0.25555653 1160.58423984 -0.25555653 1162.2989349 -0.25579105 C1204.43155027 -0.2615563 1246.56416562 -0.26754313 1288.69678095 -0.27366221 C1293.27460376 -0.27432685 1297.85242658 -0.27498896 1302.43024939 -0.27564878 C1410.51120032 -0.29122885 1518.59214841 -0.31079702 1626.6730957 -0.34332275 C1627.81104754 -0.34366493 1628.94899937 -0.3440071 1630.12143459 -0.34435964 C1667.96436136 -0.35574501 1705.80728801 -0.36751696 1743.65021464 -0.3793422 C1777.84249678 -0.3900255 1812.03477895 -0.40057002 1846.22706127 -0.41065693 C1847.91186197 -0.41115404 1847.91186197 -0.41115404 1849.63069905 -0.41166119 C1919.95274189 -0.43237387 1990.27478406 -0.44707714 2060.59682941 -0.45569897 C2061.68262566 -0.45583289 2062.76842191 -0.4559668 2063.88712107 -0.45610478 C2111.56845271 -0.46198088 2159.24978439 -0.46660271 2206.93111628 -0.4697895 C2226.11241735 -0.47107729 2245.29371842 -0.47255095 2264.47501947 -0.47412637 C2267.65547305 -0.47438604 2270.83592663 -0.47463969 2274.0163802 -0.47489269 C2322.69162079 -0.47880782 2371.36685619 -0.48688022 2420.04209304 -0.50696969 C2421.09257886 -0.50740319 2422.14306467 -0.50783669 2423.22538339 -0.50828332 C2440.12499123 -0.51528256 2457.02459892 -0.52262715 2473.92420659 -0.53003129 C2521.87764024 -0.55104075 2569.83106851 -0.56974087 2617.78450739 -0.57066381 C2618.75671881 -0.57068368 2619.72893022 -0.57070356 2620.73060258 -0.57072403 C2641.93681356 -0.57110793 2663.14302425 -0.5701272 2684.34923509 -0.56780948 C2692.80578456 -0.56690727 2701.26233403 -0.56619217 2709.71888351 -0.56553841 C2710.64137284 -0.56546223 2711.56386217 -0.56538605 2712.51430572 -0.56530756 C2741.81432925 -0.56297796 2771.1143189 -0.57608189 2800.41433355 -0.59804365 C2829.24632264 -0.6195927 2858.0782697 -0.62610283 2886.91026406 -0.61045079 C2890.85279863 -0.60831306 2894.79533327 -0.60635097 2898.73786799 -0.60449447 C2899.50974445 -0.60412433 2900.28162092 -0.60375419 2901.07688758 -0.60337283 C2913.28139021 -0.59797871 2925.48581707 -0.60935146 2937.69030455 -0.62779073 C2949.61094337 -0.6454634 2961.53146282 -0.64517085 2973.4521011 -0.62650536 C2979.806661 -0.61707121 2986.16095045 -0.61570285 2992.51549039 -0.63617622 C2998.27034186 -0.65457494 3004.02469699 -0.65035842 3009.77952797 -0.62738131 C3011.8535734 -0.62317713 3013.92765653 -0.62749048 3016.00166212 -0.64101694 C3018.80098724 -0.65808243 3021.59853306 -0.64470748 3024.39778931 -0.62335582 C3025.61024441 -0.641808 3025.61024441 -0.641808 3026.84719354 -0.66063295 C3030.93128846 -0.59490064 3032.76022214 -0.19455033 3035.97513817 2.41395974 C3038.7820219 5.99875462 3039.37211958 8.19429079 3039.30371094 12.79736328 C3038.76252894 16.72223788 3036.74433734 19.65844445 3034.625 22.9375 C3033.69488939 24.44505153 3032.7652133 25.95287123 3031.8359375 27.4609375 C3031.35995117 28.21987305 3030.88396484 28.97880859 3030.39355469 29.76074219 C3028.28020079 33.156622 3026.26647689 36.60853876 3024.25 40.0625 C3023.41819026 41.47669281 3022.58615035 42.89075026 3021.75390625 44.3046875 C3018.55156764 49.75773192 3015.37066122 55.22324747 3012.1875 60.6875 C3007.65108858 68.47394196 3003.09167801 76.24602283 2998.5 84 C2991.61153928 95.63461225 2984.80296905 107.31525337 2978 119 C2970.66762152 131.59405769 2963.31647881 144.17575004 2955.89208984 156.71582031 C2949.54344677 167.44727322 2943.27356837 178.22454942 2937 189 C2929.66762152 201.59405769 2922.31647881 214.17575004 2914.89208984 226.71582031 C2908.54344677 237.44727322 2902.27356837 248.22454942 2896 259 C2888.66762152 271.59405769 2881.31647881 284.17575004 2873.89208984 296.71582031 C2867.54344677 307.44727322 2861.27356837 318.22454942 2855 329 C2847.66762152 341.59405769 2840.31647881 354.17575004 2832.89208984 366.71582031 C2827.14501262 376.4304141 2821.46347743 386.18297189 2815.78369141 395.93701172 C2812.77424849 401.10488345 2809.76252094 406.27142205 2806.75 411.4375 C2806.16226807 412.44538574 2805.57453613 413.45327148 2804.96899414 414.49169922 C2801.26933018 420.83293886 2797.55483055 427.16519072 2793.82714844 433.48999023 C2790.19976833 439.64931701 2786.59932001 445.82424365 2783 452 C2778.62340369 459.50941632 2774.23515608 467.0115614 2769.8215332 474.49926758 C2766.25747868 480.55074265 2762.72236062 486.61893753 2759.1875 492.6875 C2754.65112452 500.47396268 2750.09167784 508.24602311 2745.5 516 C2739.21347049 526.61795025 2732.99293342 537.27372375 2726.78369141 547.93701172 C2723.77424849 553.10488345 2720.76252094 558.27142205 2717.75 563.4375 C2716.8684021 564.94932861 2716.8684021 564.94932861 2715.96899414 566.49169922 C2712.26717833 572.83662716 2708.55068117 579.17265931 2704.82055664 585.50097656 C2701.25676943 591.55184763 2697.72203031 597.61950461 2694.1875 603.6875 C2689.65112452 611.47396268 2685.09167784 619.24602311 2680.5 627 C2674.21347049 637.61795025 2667.99293342 648.27372375 2661.78369141 658.93701172 C2658.77424849 664.10488345 2655.76252094 669.27142205 2652.75 674.4375 C2651.8684021 675.94932861 2651.8684021 675.94932861 2650.96899414 677.49169922 C2647.26933018 683.83293886 2643.55483055 690.16519072 2639.82714844 696.48999023 C2636.19976833 702.64931701 2632.59932001 708.82424365 2629 715 C2624.62555378 722.50572718 2620.23925534 730.00406343 2615.828125 737.48828125 C2612.20047888 743.64821281 2608.59965047 749.82367665 2605 756 C2600.62555378 763.50572718 2596.23925534 771.00406343 2591.828125 778.48828125 C2588.20047888 784.64821281 2584.59965047 790.82367665 2581 797 C2576.62340369 804.50941632 2572.23515608 812.0115614 2567.8215332 819.49926758 C2564.25747868 825.55074265 2560.72236062 831.61893753 2557.1875 837.6875 C2552.1204971 846.38475823 2547.01792439 855.06003797 2541.88867188 863.72070312 C2537.96005776 870.3600136 2534.06749584 877.01967959 2530.1875 883.6875 C2525.04407182 892.52654438 2519.84798706 901.33286797 2514.625 910.125 C2510.05771711 917.8145753 2505.52219307 925.51529227 2501.11328125 933.296875 C2496.3753206 941.63337805 2491.50774401 949.89657956 2486.65820312 958.16845703 C2485.61535065 959.94922897 2484.57466579 961.73127387 2483.53710938 963.51513672 C2482.30185409 965.63885344 2481.05863573 967.75765563 2479.8125 969.875 C2479.4626001 970.48077881 2479.1127002 971.08655762 2478.75219727 971.71069336 C2477.0197784 974.63105659 2475.89071112 976.07285925 2473 978 C2469.6875 978.1875 2469.6875 978.1875 2466 977 C2464.58227539 975.35473633 2464.58227539 975.35473633 2463.22265625 973.20703125 C2462.70614502 972.39274658 2462.18963379 971.57846191 2461.6574707 970.73950195 C2458.61047997 965.70337248 2455.6651303 960.61338839 2452.75 955.5 C2451.41934896 953.17759293 2450.08649591 950.85645133 2448.75390625 948.53515625 C2448.1108252 947.41383301 2447.46774414 946.29250977 2446.80517578 945.13720703 C2444.4569143 941.05617376 2442.08038678 936.99249137 2439.6875 932.9375 C2439.29175781 932.26662354 2438.89601563 931.59574707 2438.48828125 930.90454102 C2437.70982077 929.58589469 2436.93101935 928.26744957 2436.15185547 926.94921875 C2434.18101221 923.61407408 2432.21504597 920.27606293 2430.25 916.9375 C2429.6461145 915.91160767 2429.6461145 915.91160767 2429.0300293 914.86499023 C2424.72444246 907.54324795 2420.44985779 900.20345055 2416.17285156 892.86499023 C2412.40436422 886.401144 2408.62094782 879.94643498 2404.8215332 873.50073242 C2401.25747878 867.44925751 2397.72232908 861.3810807 2394.1875 855.3125 C2389.59032571 847.42084018 2384.96712905 839.54540441 2380.3125 831.6875 C2375.81560497 824.0951813 2371.36618373 816.47736744 2366.95458984 808.83520508 C2362.34995728 800.86241576 2357.67767679 792.93007991 2353 785 C2347.37079036 775.45198547 2341.76665695 765.88986182 2336.1875 756.3125 C2331.59028936 748.42086113 2326.96712923 740.5454047 2322.3125 732.6875 C2317.81560497 725.0951813 2313.36618373 717.47736744 2308.95458984 709.83520508 C2304.76249333 702.5767101 2300.51474268 695.35177466 2296.25585938 688.13232422 C2294.94339641 685.90389274 2293.6352775 683.6729565 2292.328125 681.44140625 C2291.88605713 680.68746582 2291.44398926 679.93352539 2290.98852539 679.15673828 C2290.15352772 677.73243188 2289.31931168 676.30766679 2288.48608398 674.88232422 C2288.10266846 674.22893066 2287.71925293 673.57553711 2287.32421875 672.90234375 C2286.95216309 672.26022949 2286.58010742 671.61811523 2286.19677734 670.95654297 C2285.35751069 669.58447382 2284.46126839 668.24641816 2283.52587891 666.93798828 C2279.90872216 661.77953376 2279.90872216 661.77953376 2280.33984375 658.09765625 C2282.64023954 653.80538835 2285.03827838 649.60229545 2287.5625 645.4375 C2288.74286862 643.46525123 2289.92251912 641.49257255 2291.1015625 639.51953125 C2292.04757324 637.94099365 2292.04757324 637.94099365 2293.01269531 636.33056641 C2296.155964 631.06269521 2299.25578746 625.76955995 2302.35446167 620.47537231 C2303.44544965 618.61141801 2304.5372181 616.74792273 2305.62915039 614.88452148 C2310.6633118 606.29197963 2315.68297674 597.69102739 2320.69775391 589.0871582 C2325.22488681 581.32241208 2329.76603901 573.56593756 2334.3125 565.8125 C2334.66744537 565.20717438 2335.02239075 564.60184875 2335.38809204 563.97817993 C2338.28947773 559.0303904 2341.19154158 554.08299871 2344.09362793 549.13562012 C2346.62523144 544.81976349 2349.15657397 540.50375396 2351.6875 536.1875 C2352.04268707 535.58177155 2352.39787415 534.97604309 2352.76382446 534.35195923 C2357.51961216 526.24069082 2362.26522734 518.12355793 2367 510 C2372.09193709 501.26364688 2377.19756499 492.53540101 2382.3125 483.8125 C2382.66744537 483.20717438 2383.02239075 482.60184875 2383.38809204 481.97817993 C2386.28947773 477.0303904 2389.19154158 472.08299871 2392.09362793 467.13562012 C2394.62523144 462.81976349 2397.15657397 458.50375396 2399.6875 454.1875 C2400.04268707 453.58177155 2400.39787415 452.97604309 2400.76382446 452.35195923 C2406.08621275 443.27432105 2411.39371102 434.18808178 2416.69213867 425.09643555 C2421.64478838 416.60124108 2426.61789549 408.11812992 2431.59326172 399.63623047 C2436.40636662 391.4304578 2441.20997948 383.2192791 2446 375 C2451.38330835 365.76347577 2456.78160298 356.53581503 2462.1875 347.3125 C2462.74328735 346.36395142 2462.74328735 346.36395142 2463.31030273 345.39624023 C2464.36672648 343.5934122 2465.42352871 341.79080664 2466.48046875 339.98828125 C2467.08785889 338.95227783 2467.69524902 337.91627441 2468.32104492 336.84887695 C2469.86767057 334.22453863 2471.43119609 331.61111552 2473 329 C2424.91307527 329.01309323 2376.82623405 329.05234962 2328.73936315 329.12685562 C2323.06647675 329.13562272 2317.39359005 329.14417246 2311.72070312 329.15258789 C2310.59129998 329.15426695 2309.46189684 329.15594602 2308.29826936 329.15767596 C2289.99423061 329.18436952 2271.69022317 329.19344272 2253.38616696 329.19604143 C2234.61433773 329.19909735 2215.84259927 329.2210022 2197.07081103 329.26052457 C2185.48101713 329.28432818 2173.89140423 329.29330551 2162.30158922 329.28351311 C2154.36159795 329.27821074 2146.42176937 329.29116287 2138.48182443 329.3186629 C2133.89600784 329.33400078 2129.31055516 329.34110518 2124.72472763 329.32659721 C2120.52996395 329.3135035 2116.3359075 329.32322451 2112.141224 329.35143773 C2110.62031168 329.35757824 2109.09933727 329.35519621 2107.57845655 329.34362926 C2105.51662957 329.32916979 2103.45724361 329.34522512 2101.3955574 329.36914349 C2100.24880201 329.37028265 2099.10204661 329.37142181 2097.92054105 329.37259549 C2094.07747497 330.19818121 2093.09954487 331.77006432 2091 335 C2090.19860453 336.2462125 2089.42755228 337.51271868 2088.6953125 338.80078125 C2088.07873779 339.87646362 2088.07873779 339.87646362 2087.44970703 340.97387695 C2086.79397705 342.13149536 2086.79397705 342.13149536 2086.125 343.3125 C2085.14631339 345.0211084 2084.16712251 346.72942803 2083.1875 348.4375 C2082.67058594 349.34113281 2082.15367187 350.24476563 2081.62109375 351.17578125 C2078.81271148 356.06845687 2075.96884323 360.94037661 2073.125 365.8125 C2072.53195068 366.82908691 2071.93890137 367.84567383 2071.32788086 368.89306641 C2066.94323848 376.40195226 2062.52658048 383.89148501 2058.09716797 391.37402344 C2053.62899668 398.92567399 2049.18567208 406.49173599 2044.75 414.0625 C2044.39255707 414.67257904 2044.03511414 415.28265808 2043.6668396 415.91122437 C2041.84081374 419.02808368 2040.0150754 422.14511131 2038.18945312 425.26220703 C2034.98070463 430.74057987 2031.7695165 436.21752247 2028.55847168 441.69454956 C2026.78887734 444.7129722 2025.01944712 447.73149105 2023.25 450.75 C2022.54166745 451.95833379 2021.83333412 453.16666713 2021.125 454.375 C2020.774375 454.973125 2020.42375 455.57125 2020.0625 456.1875 C1992.96875 502.40625 1992.96875 502.40625 1965.875 548.625 C1965.52439011 549.22309982 1965.17378021 549.82119965 1964.81254578 550.43742371 C1964.10406194 551.64601258 1963.39557602 552.85460022 1962.68708801 554.06318665 C1960.91854021 557.08010023 1959.15002846 560.09703494 1957.3815918 563.11401367 C1954.16689122 568.59825777 1950.95190759 574.08233504 1947.73561096 579.56564331 C1940.66519736 591.61970724 1933.59997044 603.67665675 1926.5625 615.75 C1915.30692158 635.0529762 1915.30692158 635.0529762 1911.12158203 642.10253906 C1909.97661492 644.03956223 1908.84588614 645.98450844 1907.71484375 647.9296875 C1906.99809847 649.14104102 1906.2806864 650.35200033 1905.5625 651.5625 C1904.94503906 652.61566406 1904.32757812 653.66882813 1903.69140625 654.75390625 C1902.85416016 655.86572266 1902.85416016 655.86572266 1902 657 C1901.01 657 1900.02 657 1899 657 C1899.21889893 657.55598877 1899.43779785 658.11197754 1899.66333008 658.68481445 C1900.13313825 661.91555474 1899.05850372 663.26890237 1897.38671875 666.04296875 C1896.8035791 667.02499268 1896.22043945 668.0070166 1895.61962891 669.01879883 C1894.98202637 670.06447021 1894.34442383 671.1101416 1893.6875 672.1875 C1893.03958496 673.27248779 1892.39166992 674.35747559 1891.72412109 675.4753418 C1890.41869912 677.66058906 1889.10853089 679.84300852 1887.79345703 682.02246094 C1885.53798306 685.76705127 1883.32982899 689.53798581 1881.125 693.3125 C1878.21644738 698.26130776 1875.28896737 703.19875661 1872.35546875 708.1328125 C1865.03478325 720.45108358 1857.78296572 732.80228365 1850.64575195 745.22827148 C1845.50374071 754.16501565 1840.252056 763.03377821 1834.98046875 771.89453125 C1830.42598089 779.56198945 1825.94171989 787.2667319 1821.5 795 C1815.74645776 805.01721985 1809.88684815 814.96678715 1803.98046875 824.89453125 C1799.42598089 832.56198945 1794.94171989 840.2667319 1790.5 848 C1784.74645776 858.01721985 1778.88684815 867.96678715 1772.98046875 877.89453125 C1768.42598089 885.56198945 1763.94171989 893.2667319 1759.5 901 C1753.74940111 911.01209534 1747.89340278 920.9569466 1741.98925781 930.87915039 C1737.34550367 938.69583494 1732.77795651 946.5532415 1728.25 954.4375 C1723.41451337 962.85559423 1718.5043385 971.21984074 1713.48510742 979.52954102 C1709.00699378 986.95466781 1704.64040687 994.44271007 1700.28100586 1001.93798828 C1696.38064741 1008.64131075 1692.45266425 1015.32739738 1688.5 1022 C1684.03153064 1029.54468767 1679.59765951 1037.10858683 1675.1875 1044.6875 C1670.04407182 1053.52654438 1664.84798706 1062.33286797 1659.625 1071.125 C1655.0562317 1078.81707617 1650.51874144 1086.52000958 1646.109375 1094.3046875 C1638.82916162 1107.11520496 1631.30991415 1119.79366172 1623.82861328 1132.48754883 C1620.20069106 1138.64765773 1616.59979784 1144.8234238 1613 1151 C1608.62555378 1158.50572718 1604.23925534 1166.00406343 1599.828125 1173.48828125 C1596.20047888 1179.64821281 1592.59965047 1185.82367665 1589 1192 C1584.62555378 1199.50572718 1580.23925534 1207.00406343 1575.828125 1214.48828125 C1572.20047888 1220.64821281 1568.59965047 1226.82367665 1565 1233 C1560.6272026 1240.5028981 1556.24419369 1247.99938887 1551.83251953 1255.47949219 C1549.39330549 1259.619306 1546.96938148 1263.76770458 1544.5546875 1267.921875 C1533.56078939 1286.8353674 1533.56078939 1286.8353674 1529.3125 1293.8125 C1528.44044922 1295.24529297 1528.44044922 1295.24529297 1527.55078125 1296.70703125 C1525.15132094 1300.25484788 1523.97604884 1301.75598779 1519.75 1302.8125 C1514.56959056 1301.69007795 1513.71046569 1299.20925745 1510.86474609 1294.94897461 C1507.73978305 1290.00704889 1504.81982122 1284.96138117 1501.9375 1279.875 C1500.95475672 1278.15621336 1499.97200092 1276.43743367 1498.98835754 1274.71916199 C1498.31835662 1273.54842964 1497.64891383 1272.37737771 1496.98002625 1271.20600891 C1493.58498734 1265.2622209 1490.14069955 1259.34762846 1486.6875 1253.4375 C1486.10411865 1252.43831543 1485.5207373 1251.43913086 1484.91967773 1250.40966797 C1481.23465375 1244.10219538 1477.53593135 1237.80290287 1473.8269043 1231.50952148 C1469.58538151 1224.30763463 1465.38047104 1217.08444069 1461.171875 1209.86328125 C1457.79333054 1204.06834304 1454.40599756 1198.27884253 1451 1192.5 C1446.36502657 1184.63599509 1441.768292 1176.74986855 1437.171875 1168.86328125 C1433.79333054 1163.06834304 1430.40599756 1157.27884253 1427 1151.5 C1422.36502657 1143.63599509 1417.768292 1135.74986855 1413.171875 1127.86328125 C1409.79333054 1122.06834304 1406.40599756 1116.27884253 1403 1110.5 C1398.36502657 1102.63599509 1393.768292 1094.74986855 1389.171875 1086.86328125 C1385.79333054 1081.06834304 1382.40599756 1075.27884253 1379 1069.5 C1374.36502657 1061.63599509 1369.768292 1053.74986855 1365.171875 1045.86328125 C1361.40533534 1039.40284693 1357.62523784 1032.95073074 1353.82592773 1026.50952148 C1351.42342011 1022.43231757 1349.0365479 1018.34639456 1346.66015625 1014.25390625 C1341.37671718 1005.15871396 1336.09283141 996.07280058 1330.5625 987.125 C1325.4281382 978.81090511 1320.55533768 970.3535051 1315.68994141 961.87988281 C1311.65164425 954.8504438 1307.57268919 947.84786536 1303.4375 940.875 C1297.16802751 930.30084149 1290.96959995 919.68620508 1284.78369141 909.06298828 C1281.77424849 903.89511655 1278.76252094 898.72857795 1275.75 893.5625 C1275.16226807 892.55461426 1274.57453613 891.54672852 1273.96899414 890.50830078 C1270.26933018 884.16706114 1266.55483055 877.83480928 1262.82714844 871.51000977 C1259.19976807 865.35068254 1255.59941042 859.17570405 1252 853 C1245.17182712 841.28767308 1238.32883567 829.5850661 1231.390625 817.9375 C1223.98844009 805.50047501 1216.68586185 793.01719658 1209.53097534 780.43618774 C1205.89508798 774.04391749 1202.25651577 767.65990921 1198.4375 761.375 C1194.43918056 754.78729273 1190.59108202 748.11797765 1186.75 741.4375 C1181.50696699 732.32099994 1176.21231069 723.2385834 1170.84692383 714.19360352 C1166.25096734 706.44139621 1161.70586856 698.66017891 1157.19287109 690.859375 C1154.33871417 685.941245 1151.43863977 681.06551066 1148.4140625 676.25 C1147.84953369 675.34266113 1147.28500488 674.43532227 1146.70336914 673.50048828 C1145.63878775 671.7970947 1144.56057762 670.10211478 1143.46655273 668.41748047 C1139.95962387 662.78175067 1139.95962387 662.78175067 1140.18359375 658.4453125 C1140.45300781 657.63835938 1140.72242188 656.83140625 1141 656 C1140.2359082 655.92426758 1139.47181641 655.84853516 1138.68457031 655.77050781 C1135.25176917 654.78524768 1134.75450016 653.75241618 1133.046875 650.671875 C1132.51900391 649.74181641 1131.99113281 648.81175781 1131.44726562 647.85351562 C1130.88716797 646.82935547 1130.32707031 645.80519531 1129.75 644.75 C1128.50618316 642.5463245 1127.26134688 640.34322416 1126.015625 638.140625 C1125.35606 636.96292411 1124.69655574 635.7851892 1124.03710938 634.60742188 C1120.96189992 629.13733277 1117.76561449 623.73807435 1114.57925415 618.33227539 C1112.7761316 615.27107143 1110.9799768 612.2057871 1109.18359375 609.140625 C1108.65574532 608.24029541 1108.65574532 608.24029541 1108.11723328 607.32177734 C1104.00506701 600.30609048 1099.911046 593.27983173 1095.81640625 586.25390625 C1092.16834149 579.99646183 1088.50417549 573.74881533 1084.82641602 567.50878906 C1081.19930693 561.34985318 1077.59910977 555.17532985 1074 549 C1068.35729355 539.3191087 1062.69005862 529.65311785 1057 520 C1050.69872292 509.3099572 1044.4305252 498.60113467 1038.18164062 487.88037109 C1033.14387954 479.24008892 1028.07883479 470.61618377 1023 462 C1016.69872292 451.3099572 1010.4305252 440.60113467 1004.18164062 429.88037109 C999.14387954 421.24008892 994.07883479 412.61618377 989 404 C983.30994068 394.34688096 977.64293963 384.68075622 972 375 C963.538522 360.47736923 963.538522 360.47736923 955 346 C954.43128174 345.03803711 954.43128174 345.03803711 953.85107422 344.05664062 C952.7623192 342.22068245 951.66419318 340.39071656 950.5625 338.5625 C949.94503906 337.53253906 949.32757812 336.50257813 948.69140625 335.44140625 C947.06965769 332.78062095 947.06965769 332.78062095 944 331 C941.10102512 330.78538192 938.29543045 330.68928378 935.3944397 330.68214417 C934.05517471 330.66722871 934.05517471 330.66722871 932.68885386 330.65201193 C929.6735968 330.62107474 926.65843509 330.60455634 923.64306641 330.58813477 C921.47477458 330.56943135 919.30648914 330.54997382 917.1382103 330.5298214 C911.17702197 330.47745428 905.21581211 330.43857 899.25450468 330.4026382 C895.46022864 330.37880365 891.66599602 330.35134429 887.87175369 330.32266426 C826.79979629 329.86256433 765.7267564 329.88038036 704.65346646 329.92797148 C694.13681669 329.93607484 683.62016785 329.94142241 673.10351562 329.94506836 C672.34788627 329.94533108 671.59225691 329.94559381 670.81372969 329.94586449 C667.01777129 329.94717083 663.22181287 329.94843422 659.42585444 329.94967639 C628.61723125 329.95981223 597.80861667 329.97728698 567 330 C569.23973106 333.84030689 571.47959529 337.68053609 573.71948242 341.52075195 C574.34960991 342.60119026 574.9797374 343.68162857 575.62895966 344.79480743 C580.18049133 352.5980565 584.74089491 360.39599177 589.3125 368.1875 C590.02127236 369.39605863 590.73001151 370.60463674 591.4387207 371.81323242 C593.62550933 375.54233357 595.81271475 379.27119013 598 383 C600.89617437 387.93730005 603.79213294 392.87472648 606.6875 397.8125 C607.22028061 398.72109268 607.22028061 398.72109268 607.76382446 399.64804077 C613.08621275 408.72567895 618.39371102 417.81191822 623.69213867 426.90356445 C628.28203169 434.77652865 632.88905418 442.63935677 637.5 450.5 C642.67774282 459.32690681 647.84731271 468.15843169 653 477 C658.09189018 485.73638038 663.19756506 494.4645991 668.3125 503.1875 C668.66744537 503.79282562 669.02239075 504.39815125 669.38809204 505.02182007 C671.9250231 509.34809802 674.46245629 513.67408137 677 518 C679.89617437 522.93730005 682.79213294 527.87472648 685.6875 532.8125 C686.04268707 533.41822845 686.39787415 534.02395691 686.76382446 534.64804077 C692.0883729 543.72936321 697.39771195 552.81947187 702.69873047 561.91455078 C707.2255719 569.67870738 711.76637086 577.43462837 716.3125 585.1875 C716.66744537 585.79282562 717.02239075 586.39815125 717.38809204 587.02182007 C719.9250231 591.34809802 722.46245629 595.67408137 725 600 C727.89617437 604.93730005 730.79209268 609.87475008 733.6875 614.8125 C734.03803436 615.41025238 734.38856873 616.00800476 734.74972534 616.62387085 C740.38927086 626.24166121 746.01333467 635.86837286 751.6237793 645.50317383 C752.157854 646.41993896 752.69192871 647.3367041 753.2421875 648.28125 C753.7047998 649.07595703 754.16741211 649.87066406 754.64404297 650.68945312 C755.99970268 653.06934371 755.99970268 653.06934371 757.73486328 655.48242188 C759 658 759 658 758.87670898 660.46386719 C757.86015905 663.40453017 756.54657856 665.89214556 754.97265625 668.578125 C754.35060303 669.64756348 753.7285498 670.71700195 753.08764648 671.81884766 C752.41934814 672.95112793 751.7510498 674.0834082 751.0625 675.25 C750.37056152 676.43372356 749.67924118 677.61780866 748.98852539 678.80224609 C747.0007317 682.20646431 745.00104648 685.60355572 743 689 C742.09082993 690.54929383 741.18192671 692.09874432 740.2734375 693.6484375 C738.71226184 696.30832493 737.14646571 698.9654257 735.578125 701.62109375 C732.42652577 706.96407833 729.30929157 712.32706643 726.1875 717.6875 C721.7120108 725.36881469 717.21628508 733.03748699 712.6875 740.6875 C698.84158766 764.07782709 685.15425041 787.561823 671.4765625 811.05078125 C665.38489958 821.50827596 659.26779804 831.94968987 653.10302734 842.36425781 C639.79031058 864.86518708 626.63243719 887.45794295 613.4765625 910.05078125 C606.27612514 922.41226017 599.05020913 934.75782624 591.74316406 947.05664062 C590.16208791 949.72631208 588.58975452 952.40096039 587.02033997 955.07749939 C585.99895984 956.81659379 584.97375266 958.55336675 583.94702148 960.28930664 C582.63300055 962.51137654 581.32496113 964.73699732 580.02368164 966.96655273 C579.42676514 967.97145752 578.82984863 968.9763623 578.21484375 970.01171875 C577.69011475 970.90334717 577.16538574 971.79497559 576.62475586 972.71362305 C574.38598952 975.86404329 572.35201165 977.68799731 568.5625 978.5625 C564.72242328 977.71955633 563.1760149 975.07952549 561 972 C558.49302112 967.95815125 556.15128916 963.82839462 553.8125 959.6875 C553.14010166 958.50757759 552.46699889 957.32805634 551.79321289 956.14892578 C550.46163378 953.81852695 549.13201607 951.48705715 547.80371094 949.15478516 C545.54753204 945.20860977 543.25247623 941.2868834 540.9375 937.375 C536.93428184 930.5972742 532.96308895 923.8012675 529 917 C525.01301925 910.15893942 521.02048761 903.32142731 517 896.5 C512.9795121 889.67857219 508.98707845 882.84100405 505 876 C499.35729355 866.3191087 493.69005862 856.65311785 488 847 C481.6957249 836.3048711 475.42426006 825.59111751 469.17285156 814.86499023 C465.79400439 809.06946897 462.40633071 803.27940777 459 797.5 C454.36502657 789.63599509 449.768292 781.74986855 445.171875 773.86328125 C441.79333054 768.06834304 438.40599756 762.27884253 435 756.5 C430.36502657 748.63599509 425.768292 740.74986855 421.171875 732.86328125 C417.79333054 727.06834304 414.40599756 721.27884253 411 715.5 C406.36502657 707.63599509 401.768292 699.74986855 397.171875 691.86328125 C393.79333032 686.06834265 390.4059315 680.27888169 387 674.5 C383.06548576 667.82287875 379.15406144 661.13247033 375.25 654.4375 C374.65775635 653.42187988 374.0655127 652.40625977 373.45532227 651.35986328 C370.45186398 646.20818521 367.44996541 641.05560169 364.44921875 635.90234375 C358.85068032 626.29163604 353.23484339 616.6923583 347.5625 607.125 C342.06613753 597.85405769 336.67776991 588.52312813 331.30493164 579.18017578 C328.08548775 573.58945473 324.84635639 568.0157074 321.5 562.5 C317.4790573 555.87239052 313.61438171 549.15736246 309.75 542.4375 C304.50525739 533.31819807 299.20754493 524.23381296 293.8425293 515.18481445 C288.1068306 505.5063151 282.44492758 495.78517198 276.78369141 486.06298828 C273.77424849 480.89511655 270.76252094 475.72857795 267.75 470.5625 C267.16226807 469.55461426 266.57453613 468.54672852 265.96899414 467.50830078 C262.26933018 461.16706114 258.55483055 454.83480928 254.82714844 448.51000977 C251.19976807 442.35068254 247.59941042 436.17570405 244 430 C237.17182712 418.28767308 230.32883567 406.5850661 223.390625 394.9375 C215.56773752 381.79334777 207.85315456 368.59817651 200.31591797 355.2878418 C197.64856424 350.58741466 194.98469103 345.92157298 192.04296875 341.38671875 C190 338 190 338 190 335 C189.34 335 188.68 335 188 335 C187.38253906 333.87464844 186.76507813 332.74929688 186.12890625 331.58984375 C181.77250456 323.6806316 177.36022209 315.82448191 172.67578125 308.10473633 C169.06984708 302.15105924 165.56389889 296.1406316 162.0625 290.125 C158.05538427 283.24182643 154.04512128 276.36091746 150 269.5 C145.97940113 262.67863804 141.98707804 255.84100336 138 249 C132.35729355 239.3191087 126.69005862 229.65311785 121 220 C114.69872292 209.3099572 108.4305252 198.60113467 102.18164062 187.88037109 C97.52739891 179.89786439 92.85097458 171.92873861 88.15917969 163.96826172 C87.01339001 162.02273594 85.86962423 160.07603586 84.7265625 158.12890625 C80.56214497 151.03724331 76.38214703 143.95515357 72.18386841 136.88346863 C65.65813955 125.89097054 59.16375135 114.88282014 52.77734375 103.80859375 C43.94003814 88.48779905 34.98132346 73.23671011 26 58 C24.41605674 55.3128588 22.83265731 52.62539882 21.25 49.9375 C20.65493652 48.92707642 20.65493652 48.92707642 20.04785156 47.89624023 C17.46390833 43.50343588 14.89290826 39.10323892 12.328125 34.69921875 C11.69487305 33.6119751 11.06162109 32.52473145 10.40917969 31.40454102 C9.15374542 29.2479875 7.89916333 27.09093763 6.64550781 24.93334961 C6.07155273 23.94729736 5.49759766 22.96124512 4.90625 21.9453125 C4.39384766 21.06375488 3.88144531 20.18219727 3.35351562 19.27392578 C2.28796019 17.48377728 1.15559376 15.73339063 0 14 C-0.1953125 10.64453125 -0.1953125 10.64453125 -0.125 6.8125 C-0.10695312 5.54019531 -0.08890625 4.26789062 -0.0703125 2.95703125 C-0.04710937 1.98121094 -0.02390625 1.00539062 0 0 Z " fill="#FEFEFE" transform="translate(0,0)"/>
<path d="M0 0 C2.17504883 0.0546875 2.17504883 0.0546875 4.3125 0.75 C6.04956055 2.6328125 6.04956055 2.6328125 7.69921875 5.125 C8.60329468 6.49060059 8.60329468 6.49060059 9.52563477 7.88378906 C12.30778599 12.34648279 14.90090935 16.89415903 17.4375 21.5 C21.78217783 29.28665546 26.19454448 37.02213683 30.75 44.6875 C35.2187483 52.2113033 39.65924943 59.75015136 44.0625 67.3125 C49.23667544 76.19534136 54.42471994 85.06992508 59.625 93.9375 C59.97958282 94.54219116 60.33416565 95.14688232 60.69949341 95.76989746 C63.23679222 100.09681539 65.77458285 104.42344474 68.3125 108.75 C71.20867437 113.68730005 74.10463294 118.62472648 77 123.5625 C77.53278061 124.47109268 77.53278061 124.47109268 78.07632446 125.39804077 C83.4008729 134.47936321 88.71021195 143.56947187 94.01123047 152.66455078 C100.6999288 164.13658975 107.4204212 175.5899749 114.13916016 187.04443359 C118.05122491 193.71416537 121.96098665 200.38524753 125.87115479 207.05609131 C126.93101561 208.86422572 127.99089216 210.67235091 129.05078125 212.48046875 C129.57581238 213.37614563 129.57581238 213.37614563 130.1114502 214.28991699 C132.26612852 217.96551561 134.42136173 221.64078827 136.57699585 225.31582642 C144.06854447 238.08785958 151.5524735 250.86416777 159.00683594 263.65795898 C162.14088077 269.03462071 165.28227866 274.40688009 168.43359375 279.7734375 C168.78612717 280.37384857 169.13866058 280.97425964 169.50187683 281.59286499 C169.85711929 282.19788849 170.21236176 282.80291199 170.57836914 283.42626953 C171.30225954 284.65917179 172.02613645 285.89208198 172.75 287.125 C173.1088327 287.73615662 173.46766541 288.34731323 173.83737183 288.97698975 C178.89061405 297.5865117 183.89986801 306.22002108 188.875 314.875 C194.60740628 324.84578851 200.44549279 334.74980755 206.32568359 344.6340332 C211.58542288 353.48880237 216.74449351 362.39850314 221.87670898 371.32763672 C226.3550272 379.11164765 230.89834636 386.85453164 235.47827148 394.57910156 C239.3672256 401.14100861 243.22345801 407.72127552 247.0625 414.3125 C252.23681203 423.19526202 257.42471974 432.06992473 262.625 440.9375 C262.97958282 441.54219116 263.33416565 442.14688232 263.69949341 442.76989746 C266.23679222 447.09681539 268.77458285 451.42344474 271.3125 455.75 C274.20867437 460.68730005 277.10463294 465.62472648 280 470.5625 C280.53278061 471.47109268 280.53278061 471.47109268 281.07632446 472.39804077 C286.39871275 481.47567895 291.70621102 490.56191822 297.00463867 499.65356445 C301.59453169 507.52652865 306.20155418 515.38935677 310.8125 523.25 C315.99024282 532.07690681 321.15981271 540.90843169 326.3125 549.75 C333.56568452 562.19460832 340.85147892 574.62001226 348.13916016 587.04443359 C351.34558954 592.51111814 354.55034354 597.9787847 357.75521851 603.44638062 C358.80976066 605.24532695 359.8644528 607.04418527 360.91918945 608.84301758 C364.18312094 614.4098123 367.44603215 619.97719709 370.70527649 625.54673767 C379.78078941 641.09719893 379.78078941 641.09719893 389 656.5625 C393.27544777 663.65009697 397.44020195 670.80054094 401.60498047 677.95361328 C406.26451658 685.95636964 410.94005292 693.94960639 415.625 701.9375 C415.98021729 702.54321838 416.33543457 703.14893677 416.70141602 703.77301025 C418.51384777 706.86357248 420.32644794 709.95403586 422.13916016 713.04443359 C425.34484269 718.50984483 428.54887859 723.97622131 431.75302124 729.4425354 C433.52277838 732.46173078 435.29264478 735.48086211 437.0625 738.5 C437.77083386 739.70833303 438.47916719 740.91666636 439.1875 742.125 C439.538125 742.723125 439.88875 743.32125 440.25 743.9375 C443.4375 749.37500001 443.4375 749.37500001 444.49995422 751.18742371 C445.20843806 752.39601258 445.91692398 753.60460022 446.62541199 754.81318665 C448.39395979 757.83010023 450.16247154 760.84703494 451.9309082 763.86401367 C455.14564451 769.34831873 458.36066477 774.83245644 461.57699585 780.31582642 C469.06987994 793.09013637 476.55372541 805.86953851 484.01123047 818.66455078 C490.6999288 830.13658975 497.4204212 841.5899749 504.13916016 853.04443359 C507.34484269 858.50984483 510.54887859 863.97622131 513.75302124 869.4425354 C515.52277838 872.46173078 517.29264478 875.48086211 519.0625 878.5 C519.77083386 879.70833303 520.47916719 880.91666636 521.1875 882.125 C521.538125 882.723125 521.88875 883.32125 522.25 883.9375 C523.3125 885.75 524.375 887.5625 525.4375 889.375 C525.78809982 889.97307968 526.13869965 890.57115936 526.49992371 891.18736267 C527.20851971 892.39614887 527.91710735 893.60493997 528.62568665 894.81373596 C530.3924328 897.82768059 532.15932237 900.84154096 533.92651367 903.85522461 C537.16288249 909.37470487 540.398049 914.89487574 543.62806702 920.41807556 C545.0983218 922.9320316 546.56921111 925.44561593 548.04031372 927.95907593 C548.75865933 929.18652673 549.47682182 930.41408471 550.1947937 931.64175415 C555.35182811 940.45738977 560.5671694 949.23593384 565.91137695 957.93969727 C566.36472412 958.68533936 566.81807129 959.43098145 567.28515625 960.19921875 C567.67968994 960.84205811 568.07422363 961.48489746 568.48071289 962.1472168 C569.3125 963.75 569.3125 963.75 569.3125 965.75 C569.9725 965.75 570.6325 965.75 571.3125 965.75 C571.58022217 965.03642334 571.84794434 964.32284668 572.1237793 963.58764648 C573.33885932 960.68707654 574.75500929 958.0675028 576.33203125 955.34765625 C576.93515137 954.30440186 577.53827148 953.26114746 578.15966797 952.1862793 C578.80822754 951.07293213 579.45678711 949.95958496 580.125 948.8125 C580.80633319 947.63788158 581.48748299 946.46315675 582.16845703 945.28833008 C587.35808689 936.34587061 592.61054079 927.44080221 597.8828125 918.546875 C601.7971996 911.9394814 605.68066398 905.31404307 609.5625 898.6875 C609.92003357 898.07723969 610.27756714 897.46697937 610.64593506 896.83822632 C612.47186421 893.72154708 614.29753106 890.60471432 616.12304688 887.48779297 C619.33206517 882.0089595 622.54353275 876.53156197 625.75485229 871.05407715 C626.81328575 869.24865971 627.87162507 867.44318713 628.92993164 865.63769531 C632.14497484 860.15280967 635.36033283 854.66810947 638.57699585 849.18417358 C645.5009396 837.37982662 652.42124869 825.57347775 659.3125 813.75 C666.56575139 801.30543043 673.85147878 788.87998798 681.13916016 776.45556641 C684.34484269 770.99015517 687.54887859 765.52377869 690.75302124 760.0574646 C692.52277838 757.03826922 694.29264478 754.01913789 696.0625 751 C696.77083386 749.79166697 697.47916719 748.58333364 698.1875 747.375 C699.60416667 744.95833333 701.02083333 742.54166667 702.4375 740.125 C702.96341484 739.22785027 702.96341484 739.22785027 703.49995422 738.31257629 C704.20843806 737.10398742 704.91692398 735.89539978 705.62541199 734.68681335 C707.39395979 731.66989977 709.16247154 728.65296506 710.9309082 725.63598633 C714.14565377 720.15166548 717.36067798 714.66750886 720.57702637 709.18412781 C722.02508539 706.71538323 723.47299249 704.24654959 724.9208374 701.77767944 C725.64024362 700.5509537 726.35968535 699.32424878 727.0791626 698.0975647 C731.23533266 691.01085882 735.38132371 683.91838125 739.51220703 676.81689453 C745.49568928 666.53283891 751.5428722 656.28838469 757.625 646.0625 C769.52831152 626.04935135 781.28587472 605.95228915 793.01171875 585.8347168 C797.53829227 578.07074303 802.07901907 570.31511888 806.625 562.5625 C806.97994537 561.95717438 807.33489075 561.35184875 807.70059204 560.72817993 C810.60197773 555.7803904 813.50404158 550.83299871 816.40612793 545.88562012 C818.93773144 541.56976349 821.46907397 537.25375396 824 532.9375 C824.35518707 532.33177155 824.71037415 531.72604309 825.07632446 531.10195923 C830.39871275 522.02432105 835.70621102 512.93808178 841.00463867 503.84643555 C845.95728838 495.35124108 850.93039549 486.86812992 855.90576172 478.38623047 C860.71886663 470.18045779 865.52247262 461.96927509 870.3125 453.75 C875.40439018 445.01361962 880.51006506 436.2854009 885.625 427.5625 C886.15741806 426.65451157 886.15741806 426.65451157 886.70059204 425.72817993 C889.60197773 420.7803904 892.50404158 415.83299871 895.40612793 410.88562012 C897.93773144 406.56976349 900.46907397 402.25375396 903 397.9375 C903.35518707 397.33177155 903.71037415 396.72604309 904.07632446 396.10195923 C909.39953896 387.0229119 914.70843453 377.93559421 920.00683594 368.84204102 C923.14088077 363.46537929 926.28227866 358.09311991 929.43359375 352.7265625 C929.78612717 352.12615143 930.13866058 351.52574036 930.50187683 350.90713501 C931.03474052 349.99959976 931.03474052 349.99959976 931.57836914 349.07373047 C932.30225954 347.84082821 933.02613645 346.60791802 933.75 345.375 C934.1088327 344.76384338 934.46766541 344.15268677 934.83737183 343.52301025 C939.89061405 334.9134883 944.89986801 326.27997892 949.875 317.625 C955.60740628 307.65421149 961.44549279 297.75019245 967.32568359 287.8659668 C972.58542288 279.01119763 977.74449351 270.10149686 982.87670898 261.17236328 C987.3550272 253.38835235 991.89834636 245.64546836 996.47827148 237.92089844 C1000.3672256 231.35899139 1004.22345801 224.77872448 1008.0625 218.1875 C1013.23681188 209.30473824 1018.42465264 200.43003578 1023.625 191.5625 C1023.98057983 190.95614716 1024.33615967 190.34979431 1024.70251465 189.72506714 C1026.51457703 186.63514393 1028.32682337 183.54532867 1030.13916016 180.45556641 C1032.28474418 176.79753137 1034.42960499 173.1390727 1036.57421875 169.48046875 C1036.9242395 168.88335083 1037.27426025 168.28623291 1037.6348877 167.67102051 C1038.69410436 165.86402103 1039.75330533 164.05701236 1040.8125 162.25 C1044.73331599 155.56099073 1048.65417371 148.8720066 1052.57699585 142.18417358 C1059.5009396 130.37982662 1066.42124869 118.57347775 1073.3125 106.75 C1078.40443709 98.01364688 1083.51006499 89.28540101 1088.625 80.5625 C1089.15741806 79.65451157 1089.15741806 79.65451157 1089.70059204 78.72817993 C1092.60197773 73.7803904 1095.50404158 68.83299871 1098.40612793 63.88562012 C1100.58005836 60.17952159 1102.75375017 56.47328328 1104.92715454 52.76687622 C1105.64008245 51.55121804 1106.35311481 50.33562112 1107.06625366 49.12008667 C1110.80508784 42.74725743 1114.53668894 36.37049449 1118.24609375 29.98046875 C1118.8697583 28.90708252 1119.49342285 27.83369629 1120.13598633 26.7277832 C1121.28756053 24.7444038 1122.43731786 22.75996766 1123.5847168 20.77416992 C1133.69185292 3.37064708 1133.69185292 3.37064708 1136.3125 0.75 C1142.04461781 0.18618513 1142.04461781 0.18618513 1144.3125 0.75 C1147.27742868 4.11393722 1149.57717299 7.69250161 1151.82421875 11.5625 C1152.14940994 12.11981812 1152.47460114 12.67713623 1152.80964661 13.25134277 C1153.87680537 15.0820985 1154.93834923 16.91604569 1156 18.75 C1156.75608338 20.04907676 1157.51260177 21.34790042 1158.26953125 22.64648438 C1159.8407154 25.34277359 1161.41002766 28.040139 1162.97802734 30.73828125 C1166.2247054 36.321781 1169.49407538 41.89194142 1172.7633667 47.46221924 C1174.52940448 50.47164461 1176.29398592 53.48192351 1178.05859375 56.4921875 C1178.40907776 57.09002045 1178.75956177 57.68785339 1179.1206665 58.30380249 C1181.25693418 61.94804908 1183.39180175 65.59311213 1185.52563477 69.23878479 C1187.30831038 72.28445116 1189.0915376 75.3297943 1190.875 78.375 C1191.22657166 78.97535065 1191.57814331 79.57570129 1191.94036865 80.19424438 C1197.07534811 88.96044475 1202.24706382 97.70399398 1207.4375 106.4375 C1213.33279086 116.35967236 1219.13170477 126.33359142 1224.88378906 136.33935547 C1229.29192936 144.00079152 1233.76002426 151.62410946 1238.26733398 159.22753906 C1242.72163048 166.74269187 1247.14666502 174.27471549 1251.5625 181.8125 C1252.28556166 183.04646897 1253.00862482 184.28043707 1253.73168945 185.5144043 C1257.00370798 191.09899517 1260.2742507 196.68444889 1263.54376221 202.27050781 C1265.32036123 205.30561985 1267.09756725 208.34037615 1268.875 211.375 C1269.22620911 211.97471619 1269.57741821 212.57443237 1269.93927002 213.19232178 C1275.07461171 221.95916579 1280.24668649 230.70335908 1285.4375 239.4375 C1291.32675785 249.34951839 1297.11976806 259.31321116 1302.86621094 269.30859375 C1306.932719 276.37590432 1311.0390283 283.41799536 1315.1875 290.4375 C1315.71641846 291.33637939 1316.24533691 292.23525879 1316.7902832 293.16137695 C1319.1892731 297.22529525 1321.61730556 301.26006823 1324.15625 305.23828125 C1324.58695801 305.92253174 1325.01766602 306.60678223 1325.46142578 307.31176758 C1326.24725964 308.55404854 1327.04662081 309.78793523 1327.86279297 311.01049805 C1329.59212411 313.75859358 1330.34586437 315.3574115 1330.06762695 318.63134766 C1329.30449358 321.78306627 1328.3049912 323.97140197 1326.64453125 326.7421875 C1326.08797852 327.68247803 1325.53142578 328.62276855 1324.95800781 329.59155273 C1324.35311523 330.59259033 1323.74822266 331.59362793 1323.125 332.625 C1321.84478368 334.77978847 1320.56484365 336.93474112 1319.28515625 339.08984375 C1318.62660645 340.19183105 1317.96805664 341.29381836 1317.28955078 342.42919922 C1314.17555868 347.65969078 1311.12137052 352.92465457 1308.0625 358.1875 C1301.5102187 369.42564427 1294.92667516 380.64494388 1288.30078125 391.83984375 C1282.01142763 402.4677089 1275.75796921 413.11525643 1269.54394531 423.78735352 C1265.12932541 431.36374621 1260.67524854 438.9160645 1256.20703125 446.4609375 C1252.21479102 453.20811349 1248.25732267 459.97500653 1244.3125 466.75 C1239.31068828 475.34030799 1234.27229383 483.90791504 1229.20703125 492.4609375 C1225.21479102 499.20811349 1221.25732267 505.97500653 1217.3125 512.75 C1212.31068828 521.34030799 1207.27229383 529.90791504 1202.20703125 538.4609375 C1198.21479102 545.20811349 1194.25732267 551.97500653 1190.3125 558.75 C1185.83917977 566.43265594 1181.34255764 574.10066031 1176.8125 581.75 C1171.61566408 590.5256617 1166.46543302 599.3277261 1161.33203125 608.140625 C1158.00506751 613.85141767 1154.66852238 619.5562385 1151.3125 625.25 C1143.57899466 638.37675661 1135.84711137 651.50783967 1128.3125 664.75 C1119.77520038 679.74943472 1110.99845423 694.6125083 1102.20605469 709.46337891 C1095.85686871 720.19561322 1089.58654576 730.97372946 1083.3125 741.75 C1075.98012152 754.34405769 1068.62897881 766.92575004 1061.20458984 779.46582031 C1054.85594677 790.19727322 1048.58606837 800.97454942 1042.3125 811.75 C1034.98012152 824.34405769 1027.62897881 836.92575004 1020.20458984 849.46582031 C1013.85594677 860.19727322 1007.58606837 870.97454942 1001.3125 881.75 C993.98094738 894.34263919 986.63172783 906.92358304 979.20678711 919.46142578 C975.21455718 926.20839708 971.25723127 932.97516351 967.3125 939.75 C962.83917977 947.43265594 958.34255764 955.10066031 953.8125 962.75 C948.61566408 971.5256617 943.46543302 980.3277261 938.33203125 989.140625 C935.00506794 994.85141693 931.66864177 1000.55630931 928.3125 1006.25 C924.2919792 1013.07140828 920.29957832 1019.90899616 916.3125 1026.75 C910.28369964 1037.09329208 904.22392006 1047.41783335 898.14453125 1057.73144531 C892.8446284 1066.72455289 887.56915451 1075.73153445 882.3125 1084.75 C876.28365117 1095.09326401 870.22392021 1105.4178331 864.14453125 1115.73144531 C858.8446284 1124.72455289 853.56915451 1133.73153445 848.3125 1142.75 C842.28365117 1153.09326401 836.22392021 1163.4178331 830.14453125 1173.73144531 C824.8446284 1182.72455289 819.56915451 1191.73153445 814.3125 1200.75 C808.28365117 1211.09326401 802.22392021 1221.4178331 796.14453125 1231.73144531 C790.8446284 1240.72455289 785.56915739 1249.73153615 780.3125 1258.75 C776.38629925 1265.48585712 772.45707829 1272.2197287 768.5 1278.9375 C763.95042438 1286.66202877 759.41024949 1294.39205323 754.875 1302.125 C754.31835159 1303.07409241 754.31835159 1303.07409241 753.75045776 1304.0423584 C749.33192292 1311.57776951 744.92829711 1319.1213724 740.5625 1326.6875 C736.21059161 1334.22911283 731.78966352 1341.72841906 727.35180664 1349.21972656 C723.37230195 1355.9423283 719.42875149 1362.68513183 715.5 1369.4375 C710.5021114 1378.02635551 705.45293409 1386.5832486 700.375 1395.125 C694.48798787 1405.03106406 688.69658061 1414.98774359 682.95727539 1424.97998047 C677.81557757 1433.91614755 672.56422036 1442.78434237 667.29296875 1451.64453125 C662.10940029 1460.3710436 657.02710786 1469.1524793 651.97241211 1477.95410156 C646.99852953 1486.59919881 641.92823118 1495.1839773 636.83056641 1503.75634766 C633.27905304 1509.72942395 629.7351506 1515.70206356 626.3125 1521.75 C622.21836978 1528.98446308 617.95206369 1536.11596275 613.70315552 1543.26019287 C608.6504282 1551.75997929 603.67163212 1560.29837527 598.75 1568.875 C593.58880316 1577.85371106 588.36715038 1586.79298976 583.0625 1595.6875 C582.43013428 1596.75436035 581.79776855 1597.8212207 581.14624023 1598.92041016 C580.55657471 1599.90444824 579.96690918 1600.88848633 579.359375 1601.90234375 C578.58352051 1603.2015979 578.58352051 1603.2015979 577.79199219 1604.52709961 C576.42822764 1606.57612209 575.20558741 1608.18370293 573.3125 1609.75 C570.4375 1610.3125 570.4375 1610.3125 567.3125 1609.75 C563.05856359 1605.29282775 560.13078525 1600.28578117 557.125 1594.9375 C556.1489945 1593.2262447 555.17242131 1591.51531307 554.1953125 1589.8046875 C553.7096582 1588.95100586 553.22400391 1588.09732422 552.72363281 1587.21777344 C550.68159319 1583.64667715 548.59357486 1580.10354854 546.5 1576.5625 C542.4767767 1569.7426261 538.48501241 1562.90476303 534.5 1556.0625 C529.98768517 1548.31568861 525.44782581 1540.58623281 520.875 1532.875 C515.37854414 1523.60411396 509.99026906 1514.27312666 504.61743164 1504.93017578 C501.39798775 1499.33945473 498.15885639 1493.7657074 494.8125 1488.25 C490.7915573 1481.62239052 486.92688171 1474.90736246 483.0625 1468.1875 C477.8207044 1459.07332218 472.52664815 1449.99362507 467.16381836 1440.95019531 C462.51568972 1433.10812506 457.92005702 1425.23609347 453.33178711 1417.35888672 C450.00485783 1411.64828479 446.66848459 1405.9435727 443.3125 1400.25 C436.32604015 1388.39366433 429.40973033 1376.49626035 422.48046875 1364.60644531 C413.91978073 1349.91458255 413.91978073 1349.91458255 405.3125 1335.25 C401.37806092 1328.57283418 397.46656169 1321.88247077 393.5625 1315.1875 C392.97025635 1314.17187988 392.3780127 1313.15625977 391.76782227 1312.10986328 C388.76436398 1306.95818521 385.76246541 1301.80560169 382.76171875 1296.65234375 C376.6770553 1286.20676541 370.56692084 1275.77728158 364.40893555 1265.37475586 C359.9410265 1257.82350152 355.49793221 1250.2578546 351.0625 1242.6875 C350.70505707 1242.07742096 350.34761414 1241.46734192 349.9793396 1240.83877563 C348.15331374 1237.72191632 346.3275754 1234.60488869 344.50195312 1231.48779297 C341.29320463 1226.00942013 338.0820165 1220.53247753 334.87097168 1215.05545044 C333.10137734 1212.0370278 331.33194712 1209.01850895 329.5625 1206 C328.85416745 1204.79166621 328.14583412 1203.58333287 327.4375 1202.375 C238.18750003 1050.12500006 238.18750003 1050.12500006 237.12504578 1048.31257629 C236.41656194 1047.10398742 235.70807602 1045.89539978 234.99958801 1044.68681335 C233.23104021 1041.66989977 231.46252846 1038.65296506 229.6940918 1035.63598633 C226.47937622 1030.15171665 223.26437906 1024.66761293 220.04806519 1019.1842804 C218.24020136 1016.10212314 216.43255654 1013.01983748 214.625 1009.9375 C214.09380554 1009.03171707 214.09380554 1009.03171707 213.55187988 1008.1076355 C208.70962406 999.8498352 203.88097488 991.58420397 199.0625 983.3125 C194.14510872 974.87164009 189.19017523 966.45385382 184.21264648 958.04833984 C179.55213019 950.17155049 174.93859353 942.26780872 170.33203125 934.359375 C167.00506804 928.64858324 163.66866892 922.94367457 160.3125 917.25 C156.35335506 910.53338848 152.42424782 903.79955289 148.5 897.0625 C143.96362452 889.27603732 139.40417784 881.50397689 134.8125 873.75 C127.32646081 861.10607753 119.93511716 848.40737994 112.54199219 835.70898438 C106.32834015 825.03838369 100.10327682 814.37535702 93.8125 803.75 C87.52607231 793.13198882 81.30543396 782.47627716 75.09619141 771.81298828 C66.53242432 757.10712708 57.95405506 742.410297 49.3125 727.75 C43.0082249 717.0548711 36.73676006 706.34111751 30.48535156 695.61499023 C27.10650397 689.81946825 23.71870876 684.0294801 20.3125 678.25 C11.9558561 664.06537463 3.63393006 649.85998116 -4.5078125 635.55078125 C-14.06748219 618.82369092 -23.88628893 602.23977073 -33.69921875 585.66015625 C-39.98857237 575.0322911 -46.24203079 564.38474357 -52.45605469 553.71264648 C-56.3419182 547.04370814 -60.254468 540.39121743 -64.1875 533.75 C-69.38132757 524.97941837 -74.52838486 516.18233949 -79.65917969 507.37475586 C-84.64412656 498.81866008 -89.65910528 490.28061279 -94.6875 481.75 C-100.98877708 471.0599572 -107.2569748 460.35113467 -113.50585938 449.63037109 C-118.1514945 441.66262558 -122.81898727 433.70805468 -127.50195312 425.76220703 C-129.56578425 422.2593042 -131.62643465 418.75453063 -133.6875 415.25 C-134.52081912 413.83332497 -135.35415243 412.41665829 -136.1875 411 C-137.85416667 408.16666667 -139.52083333 405.33333333 -141.1875 402.5 C-141.8057666 401.44897095 -141.8057666 401.44897095 -142.43652344 400.37670898 C-143.27316884 398.95437915 -144.10975702 397.53201565 -144.94628906 396.10961914 C-146.97848926 392.65432615 -149.01154795 389.19954592 -151.046875 385.74609375 C-156.55719423 376.39305189 -162.03308905 367.02026204 -167.49926758 357.64135742 C-170.61479569 352.29747071 -173.73469587 346.95631094 -176.8737793 341.6262207 C-177.69378078 340.23277818 -178.51172868 338.83812467 -179.32739258 337.44213867 C-181.13733859 334.34892222 -182.97109119 331.28053205 -184.890625 328.25390625 C-185.87289062 326.67416016 -185.87289062 326.67416016 -186.875 325.0625 C-187.44605469 324.17175781 -188.01710938 323.28101563 -188.60546875 322.36328125 C-190.0140981 318.96121253 -189.71948856 317.26507022 -188.6875 313.75 C-187.21875 310.90234375 -187.21875 310.90234375 -185.1875 307.6875 C-184.36246163 306.35678186 -183.53975705 305.02461536 -182.71875 303.69140625 C-182.24566406 302.92586426 -181.77257812 302.16032227 -181.28515625 301.37158203 C-178.38489964 296.61257295 -175.5842253 291.79459441 -172.77294922 286.98269653 C-171.67388937 285.10170604 -170.57347916 283.2215119 -169.47265625 281.34155273 C-167.96186669 278.76144849 -166.45146138 276.18112009 -164.94140625 273.60058594 C-161.71130755 268.08139986 -158.47653991 262.56495167 -155.24194336 257.04840088 C-153.4735872 254.0323894 -151.70556095 251.01618454 -149.9375 248 C-149.22916823 246.79166575 -148.5208349 245.58333241 -147.8125 244.375 C-147.461875 243.776875 -147.11125 243.17875 -146.75 242.5625 C-75.5625 121.125 -75.5625 121.125 -74.50001526 119.31253052 C-73.79162584 118.10409852 -73.08324165 116.89566346 -72.37486267 115.68722534 C-70.60493021 112.66787646 -68.83490728 109.64858069 -67.06469727 106.62939453 C-63.86635458 101.17425006 -60.66867527 95.71872228 -57.47436523 90.26121521 C-55.69168962 87.21554884 -53.9084624 84.1702057 -52.125 81.125 C-51.77342834 80.52464935 -51.42185669 79.92429871 -51.05963135 79.30575562 C-45.27298558 69.42706055 -39.43648859 59.57880147 -33.5859375 49.73779297 C-30.22197036 44.06736824 -26.88494871 38.38309841 -23.59765625 32.66796875 C-23.26221802 32.08485428 -22.92677979 31.50173981 -22.58117676 30.9009552 C-20.99003402 28.13233493 -19.40336302 25.36125006 -17.82177734 22.5871582 C-5.53260143 1.12527487 -5.53260143 1.12527487 0 0 Z " fill="#FEFEFE" transform="translate(951.6875,994.25)"/>
<path d="M0 0 C255.75 0 511.5 0 775 0 C772.69 3.63 770.38 7.26 768 11 C766.6813499 13.18225498 765.3752877 15.37224038 764.08984375 17.57421875 C763.76069473 18.13671829 763.43154572 18.69921783 763.09242249 19.27876282 C762.03877484 21.08051157 760.98810052 22.8839731 759.9375 24.6875 C759.18703365 25.97211312 758.43637927 27.25661641 757.68554688 28.54101562 C755.80437649 31.760209 753.92566485 34.98082812 752.04803467 38.2020874 C750.49238157 40.87082384 748.93557687 43.53888823 747.37890625 46.20703125 C745.68890604 49.10413985 743.99918018 52.00140665 742.31030273 54.89916992 C737.35706893 63.39596311 732.38295202 71.88042525 727.40673828 80.36376953 C722.59363337 88.56954221 717.79002738 96.78072491 713 105 C707.90810982 113.73638038 702.80243494 122.4645991 697.6875 131.1875 C697.33255463 131.79282562 696.97760925 132.39815125 696.61190796 133.02182007 C693.71052227 137.9696096 690.80845842 142.91700129 687.90637207 147.86437988 C685.37476856 152.18023651 682.84342603 156.49624604 680.3125 160.8125 C679.95731293 161.41822845 679.60212585 162.02395691 679.23617554 162.64804077 C673.91378725 171.72567895 668.60628898 180.81191822 663.30786133 189.90356445 C658.35521162 198.39875892 653.38210451 206.88187008 648.40673828 215.36376953 C643.59363337 223.56954221 638.79002738 231.78072491 634 240 C626.74681548 252.44460832 619.46102108 264.87001226 612.17333984 277.29443359 C609.32061968 282.15807454 606.46922776 287.02249387 603.61791992 291.88696289 C602.20558121 294.29645726 600.79296669 296.70578961 599.38012695 299.11499023 C596.17067073 304.58819626 592.96262671 310.06220778 589.76119995 315.54011536 C587.96668719 318.61059611 586.17116003 321.68048259 584.375 324.75 C584.02181702 325.3535733 583.66863403 325.95714661 583.30474854 326.57901001 C578.38435199 334.98284447 573.40358511 343.3477931 568.375 351.6875 C562.72534119 361.0610002 557.21183986 370.50544145 551.76074219 379.99560547 C547.08926238 388.12533508 542.37171376 396.22657477 537.625 404.3125 C537.27200836 404.91391815 536.91901672 405.5153363 536.55532837 406.13497925 C534.76093598 409.19188972 532.96587385 412.24840615 531.17041016 415.3046875 C527.54763075 421.47191915 523.930013 427.64217827 520.3125 433.8125 C519.95722229 434.41840973 519.60194458 435.02431946 519.23590088 435.64859009 C513.91359635 444.72604077 508.60618622 453.81209454 503.30786133 462.90356445 C498.35521162 471.39875892 493.38210451 479.88187008 488.40673828 488.36376953 C483.59363337 496.56954221 478.79002738 504.78072491 474 513 C468.90810982 521.73638038 463.80243494 530.4645991 458.6875 539.1875 C458.33255463 539.79282562 457.97760925 540.39815125 457.61190796 541.02182007 C454.71052227 545.9696096 451.80845842 550.91700129 448.90637207 555.86437988 C446.37476856 560.18023651 443.84342603 564.49624604 441.3125 568.8125 C440.95731293 569.41822845 440.60212585 570.02395691 440.23617554 570.64804077 C435.48038778 578.75930928 430.73481331 586.87646569 426 595 C419.05170202 606.92011535 412.08274 618.82800156 405.09407043 630.7244873 C402.75414877 634.70950344 400.42584984 638.70114881 398.1015625 642.6953125 C396.92198179 644.71360408 395.74230034 646.73183679 394.5625 648.75 C394.02488037 649.67893066 393.48726074 650.60786133 392.93334961 651.56494141 C392.4410083 652.40460449 391.94866699 653.24426758 391.44140625 654.109375 C391.01545166 654.84124023 390.58949707 655.57310547 390.15063477 656.32714844 C389 658 389 658 387 659 C386.61368408 658.32759277 386.22736816 657.65518555 385.8293457 656.96240234 C378.56587064 644.32719443 371.27109364 631.7140133 363.83813477 619.17749023 C359.94787906 612.61338528 356.09032764 606.0309318 352.25 599.4375 C347.07568797 590.55473798 341.88778026 581.68007527 336.6875 572.8125 C336.33291718 572.20780884 335.97833435 571.60311768 335.61300659 570.98010254 C333.07570778 566.65318461 330.53791715 562.32655526 328 558 C325.10382563 553.06269995 322.20786706 548.12527352 319.3125 543.1875 C318.95731293 542.58177155 318.60212585 541.97604309 318.23617554 541.35195923 C312.91378725 532.27432105 307.60628898 523.18808178 302.30786133 514.09643555 C297.71796831 506.22347135 293.11094582 498.36064323 288.5 490.5 C283.32225718 481.67309319 278.15268729 472.84156831 273 464 C267.90810982 455.26361962 262.80243494 446.5354009 257.6875 437.8125 C257.33255463 437.20717438 256.97760925 436.60184875 256.61190796 435.97817993 C254.0749769 431.65190198 251.53754371 427.32591863 249 423 C246.10382563 418.06269995 243.20786706 413.12527352 240.3125 408.1875 C239.95731293 407.58177155 239.60212585 406.97604309 239.23617554 406.35195923 C234.48038772 398.24069062 229.734854 390.12351066 225 382 C210.87120005 357.67836588 210.87120005 357.67836588 196.5 333.5 C186.23473309 316.48388057 176.31015038 299.25758751 166.30322266 282.08886719 C161.77579823 274.32353157 157.23429285 266.5665035 152.6875 258.8125 C152.33255463 258.20717438 151.97760925 257.60184875 151.61190796 256.97817993 C149.0749769 252.65190198 146.53754371 248.32591863 144 244 C141.10382563 239.06269995 138.20786706 234.12527352 135.3125 229.1875 C134.95731293 228.58177155 134.60212585 227.97604309 134.23617554 227.35195923 C128.91378725 218.27432105 123.60628898 209.18808178 118.30786133 200.09643555 C113.71796831 192.22347135 109.11094582 184.36064323 104.5 176.5 C98.75570165 166.70724127 93.02504083 156.90670978 87.30859375 147.09765625 C82.71842028 139.22430632 78.11118592 131.36105255 73.5 123.5 C68.32225718 114.67309319 63.15268729 105.84156831 58 97 C52.19298658 87.03665117 46.36716357 77.08442046 40.53173828 67.13769531 C39.80891605 65.90560085 39.08609705 64.67350449 38.36328125 63.44140625 C38.0036731 62.82844696 37.64406494 62.21548767 37.27355957 61.58395386 C34.73440976 57.25488944 32.2002481 52.92292983 29.66796875 48.58984375 C22.68002893 36.63590449 15.66397676 24.69941742 8.5625 12.8125 C7.92940918 11.74870117 7.29631836 10.68490234 6.64404297 9.58886719 C6.06154785 8.61723633 5.47905273 7.64560547 4.87890625 6.64453125 C4.3691626 5.79221924 3.85941895 4.93990723 3.33422852 4.06176758 C2.03331061 1.89365655 2.03331061 1.89365655 0 0 Z " fill="#000000" transform="translate(1132,0)"/>
<path d="M0 0 C371.58 0 743.16 0 1126 0 C1126 0.33 1126 0.66 1126 1 C1125.35071051 1.00008822 1124.70142102 1.00017644 1124.03245609 1.00026734 C1053.36563604 1.01004601 982.69881839 1.02598931 912.03201294 1.07429504 C910.97694786 1.0750145 909.92188279 1.07573395 908.83484604 1.0764752 C885.90718701 1.09214677 862.97952891 1.10892892 840.05187153 1.12685562 C828.80866972 1.13563971 817.56546772 1.1441783 806.32226562 1.15258789 C804.64398669 1.15384946 804.64398669 1.15384946 802.93180313 1.15513652 C766.64588398 1.18229771 730.35998189 1.19323819 694.07405337 1.19579524 C656.79539806 1.19850773 619.51678597 1.21752808 582.23815075 1.25716115 C576.97662952 1.26274735 571.71510812 1.2681465 566.45358658 1.27343178 C564.90022382 1.27500083 564.90022382 1.27500083 563.31548 1.27660158 C546.62428775 1.29297982 529.93313861 1.29209171 513.24194177 1.28479717 C496.47453469 1.27783598 479.70721755 1.28894485 462.93983464 1.3186629 C452.96965211 1.33578016 442.99969113 1.33887864 433.02950669 1.32217421 C426.37598196 1.3123895 419.72263926 1.3206042 413.06914762 1.34366048 C409.27376838 1.35629118 405.47883398 1.36090057 401.68346296 1.34362926 C397.60049743 1.32523101 393.51863373 1.34519655 389.43569756 1.36914349 C387.65685858 1.3518474 387.65685858 1.3518474 385.84208345 1.3342019 C379.02367452 1.34250741 379.02367452 1.34250741 373.2227689 4.53942853 C372.1224983 5.75741141 372.1224983 5.75741141 371 7 C370.63114943 6.18801142 370.26229885 5.37602283 369.88227099 4.53942853 C368.23524304 1.7425532 368.23524304 1.7425532 365.26777774 1.37259549 C363.5926415 1.37088675 363.5926415 1.37088675 361.88366413 1.36914349 C360.59580141 1.35570485 359.3079387 1.34226621 357.98104984 1.32842034 C356.54354107 1.33875707 355.10603556 1.3495548 353.66853333 1.36076355 C352.14800728 1.35445616 350.62748901 1.34595594 349.10698622 1.33544332 C344.91780816 1.31286269 340.72917854 1.32153015 336.53998291 1.3351289 C332.02665188 1.34436523 327.51343641 1.3248664 323.00013733 1.30880737 C315.17695282 1.28492765 307.35392589 1.27936859 299.53071022 1.28615379 C288.21960529 1.29593777 276.90867559 1.27824567 265.59759899 1.25378648 C247.2474352 1.21485481 228.89732138 1.19823146 210.54711914 1.19555664 C192.71864253 1.19291028 174.89022434 1.17980757 157.06176758 1.15258789 C155.96334138 1.15091451 154.86491517 1.14924113 153.73320333 1.14751705 C148.22287673 1.13905775 142.71255049 1.13039231 137.20222437 1.12162435 C91.46815982 1.04911979 45.73411761 1.0127854 0 1 C0 0.67 0 0.34 0 0 Z " fill="#C0C0C0" transform="translate(1907,0)"/>
<path d="M0 0 C373.56 0 747.12 0 1132 0 C1132 0.33 1132 0.66 1132 1 C1131.02224743 0.99993224 1130.04449485 0.99986448 1129.03711341 0.99979467 C1095.56087512 0.99752045 1062.08463681 0.99657886 1028.60839844 0.99658203 C1027.59684082 0.99658195 1027.59684082 0.99658195 1026.5648477 0.99658187 C954.32164986 0.99661293 882.07845939 1.00540538 809.83526611 1.0319519 C808.23100149 1.03253918 806.62673686 1.03312645 805.02247223 1.03371371 C771.3503701 1.04606655 737.67826857 1.05965343 704.00616753 1.07466634 C687.0921791 1.08220623 670.17819058 1.08950892 653.26420196 1.09658736 C650.71275116 1.09765651 648.16130037 1.09873243 645.60984958 1.09980864 C606.30958058 1.11632582 567.0093182 1.1277483 527.70904541 1.12445068 C526.86371186 1.12437985 526.01837832 1.12430902 525.1474286 1.12423604 C511.51768622 1.12306308 497.88794389 1.12146351 484.25820157 1.11980735 C445.01216778 1.11504501 405.76614532 1.11342428 366.5201149 1.13270378 C365.71347181 1.1330985 364.90682873 1.13349323 364.07574191 1.13389991 C346.37023151 1.14262063 328.66472244 1.15296459 310.95921389 1.16484662 C303.83568627 1.16959855 296.7121585 1.17411669 289.58863068 1.17855453 C288.80897964 1.17904588 288.02932861 1.17953723 287.22605179 1.18004347 C262.083508 1.19577232 236.94101077 1.19245122 211.79846689 1.17918932 C186.48238498 1.16592276 161.16638122 1.17123443 135.85031301 1.20255437 C132.35582806 1.20687291 128.86134289 1.21097728 125.36685753 1.21495247 C124.68180913 1.2157395 123.99676074 1.21652653 123.2909533 1.2173374 C113.08690252 1.22853862 102.88295394 1.2229007 92.67891121 1.20739174 C81.33908743 1.19025446 69.99949719 1.19245508 58.65969394 1.22182867 C52.94385544 1.23600586 47.22844499 1.24042601 41.51262042 1.21874608 C36.32134727 1.19923883 31.13087917 1.20689935 25.93966324 1.23702075 C24.06503175 1.24299684 22.19033527 1.23873559 20.31575658 1.22345027 C17.78389287 1.20424165 15.25488185 1.22151891 12.72315097 1.24839699 C11.62373656 1.22680598 11.62373656 1.22680598 10.50211176 1.20477878 C8.20510151 1.19026264 8.20510151 1.19026264 5 2 C2.53856034 4.91220647 2.53856034 4.91220647 1 8 C0.67 8 0.34 8 0 8 C0 5.36 0 2.72 0 0 Z " fill="#BFBFBF" transform="translate(0,0)"/>
<path d="M0 0 C124.08 0 248.16 0 376 0 C374.68 2.31 373.36 4.62 372 7 C371.20303093 5.78201712 371.20303093 5.78201712 370.38996148 4.53942853 C368.23361586 1.76974224 368.23361586 1.76974224 365.14357924 1.37259549 C364.02720147 1.37145633 362.9108237 1.37031717 361.7606163 1.36914349 C359.82583565 1.34898553 359.82583565 1.34898553 357.85196853 1.32842034 C356.41740201 1.33875643 354.98283876 1.34955413 353.54827881 1.36076355 C352.02688972 1.35445438 350.50550841 1.34595307 348.98414254 1.33544332 C344.79722342 1.31288695 340.61085383 1.32152122 336.42391729 1.3351289 C331.91128566 1.34437262 327.39876914 1.32486121 322.88616943 1.30880737 C315.06573085 1.28493764 307.2454499 1.27936609 299.42498016 1.28615379 C288.11787125 1.29594134 276.81093751 1.27823975 265.50385693 1.25378648 C247.159794 1.21486311 228.81578106 1.19823195 210.47167969 1.19555664 C192.65003901 1.19290993 174.82845677 1.17980362 157.00683594 1.15258789 C155.35959072 1.15007782 155.35959072 1.15007782 153.67906782 1.14751705 C148.17001186 1.1390577 142.66095625 1.13039226 137.15190077 1.12162435 C91.43461075 1.04912994 45.71734308 1.01278696 0 1 C0 0.67 0 0.34 0 0 Z " fill="#BFBFBF" transform="translate(1907,0)"/>
<path d="M0 0 C2.31 0 4.62 0 7 0 C7.08074203 2.62561109 7.1403623 5.24875676 7.1875 7.875 C7.22520508 8.99455078 7.22520508 8.99455078 7.26367188 10.13671875 C7.29296875 12.3046875 7.29296875 12.3046875 7 16 C6.01 16.66 5.02 17.32 4 18 C4.33 17.01 4.66 16.02 5 15 C5.34897334 9.59091325 5.40316685 6.45029511 2 2 C1.34 1.34 0.68 0.68 0 0 Z " fill="#171717" transform="translate(3033,0)"/>
<path d="M0 0 C3.3 0 6.6 0 10 0 C8.68 2.31 7.36 4.62 6 7 C5.38125 6.21625 4.7625 5.4325 4.125 4.625 C2.10141339 2.03162353 2.10141339 2.03162353 0 0 Z " fill="#0B0B0B" transform="translate(2273,0)"/>
<path d="M0 0 C1.98 0 3.96 0 6 0 C5.19185349 1.33597652 4.37836819 2.668725 3.5625 4 C3.11003906 4.7425 2.65757812 5.485 2.19140625 6.25 C1.79824219 6.8275 1.40507812 7.405 1 8 C0.67 8 0.34 8 0 8 C0 5.36 0 2.72 0 0 Z " fill="#080808" transform="translate(0,0)"/>
</svg>
