<?xml version="1.0" encoding="utf-8"?>
<svg viewBox="0 0 3040 2604" xmlns="http://www.w3.org/2000/svg">
  <ellipse style="stroke: rgb(0, 0, 0);" cx="1549.914" cy="1523.206" rx="2354.949" ry="2354.949"/>
  <g transform="matrix(1, 0, 0, 1, -100.54869379248294, -18.69904192385195)">
    <path d="M 130.892 617.064 C 216.341 617.039 301.789 617.014 409.233 616.985 C 410.594 616.984 410.594 616.984 411.984 616.984 C 509.681 616.957 607.379 616.931 994.919 616.853 C 998.154 616.852 1001.389 616.852 1004.624 616.851 C 1096.288 616.836 1187.953 616.823 1279.618 616.81 C 1283.01 616.81 1286.403 616.809 1289.796 616.809 C 1291.476 616.808 1291.476 616.808 1293.191 616.808 C 1335.324 616.802 1377.456 616.796 1419.589 616.79 C 1424.167 616.79 1428.744 616.789 1433.322 616.788 C 1541.403 616.773 1649.484 616.753 1757.565 616.721 C 1758.703 616.72 1759.841 616.72 1761.013 616.72 C 1798.856 616.708 1836.699 616.696 1874.542 616.685 C 1908.735 616.674 1942.927 616.663 1977.119 616.653 C 1978.804 616.653 1978.804 616.653 1980.523 616.652 C 2050.845 616.632 2121.167 616.617 2191.489 616.608 C 2192.575 616.608 2193.66 616.608 2194.779 616.608 C 2242.46 616.602 2290.142 616.597 2337.823 616.594 C 2357.004 616.593 2376.186 616.591 2395.367 616.59 C 2398.547 616.59 2401.728 616.589 2404.908 616.589 C 2453.584 616.585 2502.259 616.577 2550.934 616.557 C 2551.985 616.557 2553.035 616.556 2554.117 616.556 C 2571.017 616.549 2587.917 616.541 2604.816 616.534 C 2652.77 616.513 2700.723 616.494 2748.677 616.493 C 2749.649 616.493 2750.621 616.493 2751.623 616.493 C 2772.829 616.493 2794.035 616.494 2815.241 616.496 C 2823.698 616.497 2832.154 616.498 2840.611 616.498 C 2841.533 616.499 2842.456 616.499 2843.406 616.499 C 2872.706 616.501 2902.006 616.488 2931.306 616.466 C 2960.138 616.444 2988.97 616.438 3017.802 616.454 C 3021.745 616.456 3025.687 616.458 3029.63 616.459 C 3030.402 616.46 3031.174 616.46 3031.969 616.461 C 3044.173 616.466 3056.378 616.455 3068.582 616.436 C 3080.503 616.419 3092.423 616.419 3104.344 616.437 C 3110.699 616.447 3117.053 616.448 3123.408 616.428 C 3129.162 616.409 3134.917 616.414 3140.672 616.437 C 3142.746 616.441 3144.82 616.436 3146.894 616.423 C 3149.693 616.406 3152.491 616.419 3155.29 616.441 C 3156.502 616.422 3156.502 616.422 3157.739 616.403 C 3161.823 616.469 3163.652 616.869 3166.867 619.478 C 3169.674 623.063 3170.264 625.258 3170.196 629.861 C 3169.655 633.786 3167.636 636.722 3165.517 640.001 C 3164.587 641.509 3163.657 643.017 3162.728 644.525 C 3162.252 645.284 3161.776 646.043 3161.286 646.825 C 3159.172 650.221 3157.158 653.673 3155.142 657.126 C 3154.31 658.541 3153.478 659.955 3152.646 661.369 C 3149.444 666.822 3146.263 672.287 3143.08 677.751 C 3138.543 685.538 3133.984 693.31 3129.392 701.064 C 3122.504 712.699 3115.695 724.379 3108.892 736.064 C 3101.56 748.658 3094.208 761.24 3086.784 773.78 C 3080.435 784.511 3074.166 795.289 3067.892 806.064 C 3060.56 818.658 3053.208 831.24 3045.784 843.78 C 3039.435 854.511 3033.166 865.289 3026.892 876.064 C 3019.56 888.658 3012.208 901.24 3004.784 913.78 C 2998.435 924.511 2992.166 935.289 2985.892 946.064 C 2978.56 958.658 2971.208 971.24 2963.784 983.78 C 2958.037 993.494 2952.355 1003.247 2946.676 1013.001 C 2943.666 1018.169 2940.655 1023.335 2937.642 1028.501 C 2937.054 1029.509 2936.467 1030.517 2935.861 1031.556 C 2932.161 1037.897 2928.447 1044.229 2924.719 1050.554 C 2921.092 1056.713 2917.491 1062.888 2913.892 1069.064 C 2909.515 1076.573 2905.127 1084.076 2900.714 1091.563 C 2897.149 1097.615 2893.614 1103.683 2890.08 1109.751 C 2885.543 1117.538 2880.984 1125.31 2876.392 1133.064 C 2870.105 1143.682 2863.885 1154.338 2857.676 1165.001 C 2854.666 1170.169 2851.655 1175.335 2848.642 1180.501 C 2847.76 1182.013 2847.76 1182.013 2846.861 1183.556 C 2843.159 1189.901 2839.443 1196.237 2835.713 1202.565 C 2832.149 1208.616 2828.614 1214.683 2825.079 1220.751 C 2820.543 1228.538 2815.984 1236.31 2811.392 1244.064 C 2805.105 1254.682 2798.885 1265.338 2792.676 1276.001 C 2789.666 1281.169 2786.655 1286.335 2783.642 1291.501 C 2782.76 1293.013 2782.76 1293.013 2781.861 1294.556 C 2778.161 1300.897 2774.447 1307.229 2770.719 1313.554 C 2767.092 1319.713 2763.491 1325.888 2759.892 1332.064 C 2755.518 1339.57 2751.131 1347.068 2746.72 1354.552 C 2743.092 1360.712 2739.492 1366.888 2735.892 1373.064 C 2731.518 1380.57 2727.131 1388.068 2722.72 1395.552 C 2719.092 1401.712 2715.492 1407.888 2711.892 1414.064 C 2707.515 1421.573 2703.127 1429.076 2698.714 1436.563 C 2695.149 1442.615 2691.614 1448.683 2688.08 1454.751 C 2683.013 1463.449 2677.91 1472.124 2672.781 1480.785 C 2668.852 1487.424 2664.959 1494.084 2661.08 1500.751 C 2655.936 1509.591 2650.74 1518.397 2645.517 1527.189 C 2640.95 1534.879 2636.414 1542.579 2632.005 1550.361 C 2627.267 1558.697 2622.4 1566.961 2617.55 1575.232 C 2616.507 1577.013 2615.467 1578.795 2614.429 1580.579 C 2613.194 1582.703 2611.951 1584.822 2610.705 1586.939 C 2610.355 1587.545 2610.005 1588.151 2609.644 1588.775 C 2607.912 1591.695 2606.783 1593.137 2603.892 1595.064 C 2600.58 1595.251 2600.58 1595.251 2596.892 1594.064 C 2595.474 1592.419 2595.474 1592.419 2594.115 1590.271 C 2593.598 1589.457 2593.082 1588.642 2592.549 1587.803 C 2589.502 1582.767 2586.557 1577.677 2583.642 1572.564 C 2582.311 1570.242 2580.979 1567.92 2579.646 1565.599 C 2579.003 1564.478 2578.36 1563.356 2577.697 1562.201 C 2575.349 1558.12 2572.972 1554.056 2570.58 1550.001 C 2570.184 1549.331 2569.788 1548.66 2569.38 1547.969 C 2568.602 1546.65 2567.823 1545.331 2567.044 1544.013 C 2565.073 1540.678 2563.107 1537.34 2561.142 1534.001 C 2560.538 1532.976 2560.538 1532.976 2559.922 1531.929 C 2555.616 1524.607 2551.342 1517.267 2547.065 1509.929 C 2543.296 1503.465 2539.513 1497.01 2535.714 1490.565 C 2532.149 1484.513 2528.614 1478.445 2525.079 1472.376 C 2520.482 1464.485 2515.859 1456.609 2511.204 1448.751 C 2506.708 1441.159 2502.258 1433.541 2497.847 1425.899 C 2493.242 1417.926 2488.57 1409.994 2483.892 1402.064 C 2478.263 1392.516 2472.659 1382.954 2467.079 1373.376 C 2462.482 1365.485 2457.859 1357.609 2453.204 1349.751 C 2448.708 1342.159 2444.258 1334.541 2439.847 1326.899 C 2435.654 1319.641 2431.407 1312.416 2427.148 1305.196 C 2425.835 1302.968 2424.527 1300.737 2423.22 1298.505 C 2422.778 1297.751 2422.336 1296.998 2421.881 1296.221 C 2421.046 1294.796 2420.211 1293.372 2419.378 1291.946 C 2418.995 1291.293 2418.611 1290.64 2418.216 1289.966 C 2417.844 1289.324 2417.472 1288.682 2417.089 1288.021 C 2416.25 1286.648 2415.353 1285.31 2414.418 1284.002 C 2410.801 1278.844 2410.801 1278.844 2411.232 1275.162 C 2413.532 1270.869 2415.93 1266.666 2418.454 1262.501 C 2419.635 1260.529 2420.815 1258.557 2421.994 1256.584 C 2422.94 1255.005 2422.94 1255.005 2423.905 1253.395 C 2427.048 1248.127 2430.148 1242.834 2433.246 1237.539 C 2434.337 1235.675 2435.429 1233.812 2436.521 1231.949 C 2441.555 1223.356 2446.575 1214.755 2451.59 1206.151 C 2456.117 1198.386 2460.658 1190.63 2465.204 1182.877 C 2465.559 1182.271 2465.914 1181.666 2466.28 1181.042 C 2469.181 1176.094 2472.084 1171.147 2474.986 1166.2 C 2477.517 1161.884 2480.049 1157.568 2482.579 1153.251 C 2482.935 1152.646 2483.29 1152.04 2483.656 1151.416 C 2488.412 1143.305 2493.157 1135.188 2497.892 1127.064 C 2502.984 1118.328 2508.09 1109.599 2513.204 1100.876 C 2513.559 1100.271 2513.914 1099.666 2514.28 1099.042 C 2517.181 1094.094 2520.084 1089.147 2522.986 1084.2 C 2525.517 1079.884 2528.049 1075.568 2530.579 1071.251 C 2530.935 1070.646 2531.29 1070.04 2531.656 1069.416 C 2536.978 1060.338 2542.286 1051.252 2547.584 1042.16 C 2552.537 1033.665 2557.51 1025.182 2562.485 1016.7 C 2567.298 1008.494 2572.102 1000.283 2576.892 992.064 C 2582.275 982.827 2587.674 973.6 2593.079 964.376 C 2593.635 963.428 2593.635 963.428 2594.202 962.46 C 2595.259 960.657 2596.316 958.855 2597.372 957.052 C 2597.98 956.016 2598.587 954.98 2599.213 953.913 C 2600.76 951.289 2602.323 948.675 2603.892 946.064 C 2555.805 946.077 2507.718 946.116 2459.631 946.191 C 2453.958 946.2 2448.286 946.208 2442.613 946.217 C 2441.483 946.218 2440.354 946.22 2439.19 946.222 C 2420.886 946.248 2402.582 946.257 2384.278 946.26 C 2365.506 946.263 2346.735 946.285 2327.963 946.325 C 2316.373 946.348 2304.783 946.357 2293.194 946.348 C 2285.254 946.342 2277.314 946.355 2269.374 946.383 C 2264.788 946.398 2260.203 946.405 2255.617 946.391 C 2251.422 946.378 2247.228 946.387 2243.033 946.415 C 2241.512 946.422 2239.991 946.419 2238.47 946.408 C 2236.409 946.393 2234.349 946.409 2232.288 946.433 C 2231.141 946.434 2229.994 946.435 2228.813 946.437 C 2224.969 947.262 2223.992 948.834 2221.892 952.064 C 2221.091 953.31 2220.32 954.577 2219.587 955.865 C 2218.971 956.94 2218.971 956.94 2218.342 958.038 C 2217.686 959.195 2217.686 959.195 2217.017 960.376 C 2216.038 962.085 2215.059 963.793 2214.079 965.501 C 2213.563 966.405 2213.046 967.309 2212.513 968.24 C 2209.705 973.132 2206.861 978.004 2204.017 982.876 C 2203.424 983.893 2202.831 984.91 2202.22 985.957 C 2197.835 993.466 2193.419 1000.955 2188.989 1008.438 C 2184.521 1015.99 2180.078 1023.556 2175.642 1031.126 C 2175.285 1031.737 2174.927 1032.347 2174.559 1032.975 C 2172.733 1036.092 2170.907 1039.209 2169.081 1042.326 C 2165.873 1047.805 2162.661 1053.282 2159.45 1058.759 C 2157.681 1061.777 2155.911 1064.795 2154.142 1067.814 C 2153.434 1069.022 2152.725 1070.231 2152.017 1071.439 C 2151.666 1072.037 2151.316 1072.635 2150.954 1073.251 C 2123.861 1119.47 2123.861 1119.47 2096.767 1165.689 C 2096.416 1166.287 2096.066 1166.885 2095.705 1167.501 C 2094.996 1168.71 2094.288 1169.919 2093.579 1171.127 C 2091.811 1174.144 2090.042 1177.161 2088.274 1180.178 C 2085.059 1185.662 2081.844 1191.146 2078.628 1196.63 C 2071.557 1208.684 2064.492 1220.741 2057.454 1232.814 C 2046.199 1252.117 2046.199 1252.117 2042.014 1259.167 C 2040.869 1261.104 2039.738 1263.048 2038.607 1264.994 C 2037.89 1266.205 2037.173 1267.416 2036.454 1268.626 C 2035.837 1269.68 2035.22 1270.733 2034.583 1271.818 C 2033.746 1272.93 2033.746 1272.93 2032.892 1274.064 C 2031.902 1274.064 2030.912 1274.064 2029.892 1274.064 C 2030.111 1274.62 2030.33 1275.176 2030.555 1275.749 C 2031.025 1278.98 2029.95 1280.333 2028.279 1283.107 C 2027.696 1284.089 2027.112 1285.071 2026.512 1286.083 C 2025.874 1287.128 2025.236 1288.174 2024.579 1289.251 C 2023.932 1290.336 2023.284 1291.421 2022.616 1292.539 C 2021.311 1294.725 2020.001 1296.907 2018.685 1299.086 C 2016.43 1302.831 2014.222 1306.602 2012.017 1310.376 C 2009.108 1315.325 2006.181 1320.263 2003.247 1325.197 C 1995.927 1337.515 1988.675 1349.866 1981.538 1362.292 C 1976.396 1371.229 1971.144 1380.098 1965.872 1388.959 C 1961.318 1396.626 1956.834 1404.331 1952.392 1412.064 C 1946.638 1422.081 1940.779 1432.031 1934.872 1441.959 C 1930.318 1449.626 1925.834 1457.331 1921.392 1465.064 C 1915.638 1475.081 1909.779 1485.031 1903.872 1494.959 C 1899.318 1502.626 1894.834 1510.331 1890.392 1518.064 C 1884.641 1528.076 1878.785 1538.021 1872.881 1547.943 C 1868.237 1555.76 1863.67 1563.617 1859.142 1571.501 C 1854.306 1579.92 1849.396 1588.284 1844.377 1596.594 C 1839.899 1604.019 1835.532 1611.507 1831.173 1619.002 C 1827.273 1625.705 1823.345 1632.391 1819.392 1639.064 C 1814.924 1646.609 1810.49 1654.173 1806.079 1661.751 C 1800.936 1670.591 1795.74 1679.397 1790.517 1688.189 C 1785.948 1695.881 1781.411 1703.584 1777.001 1711.369 C 1769.721 1724.179 1762.202 1736.858 1754.721 1749.552 C 1751.093 1755.712 1747.492 1761.887 1743.892 1768.064 C 1739.518 1775.57 1735.131 1783.068 1730.72 1790.552 C 1727.092 1796.712 1723.492 1802.888 1719.892 1809.064 C 1715.518 1816.57 1711.131 1824.068 1706.72 1831.552 C 1703.092 1837.712 1699.492 1843.888 1695.892 1850.064 C 1691.519 1857.567 1687.136 1865.063 1682.725 1872.543 C 1680.285 1876.683 1677.861 1880.832 1675.447 1884.986 C 1664.453 1903.899 1664.453 1903.899 1660.205 1910.876 C 1659.332 1912.309 1659.332 1912.309 1658.443 1913.771 C 1656.043 1917.319 1654.868 1918.82 1650.642 1919.876 C 1645.462 1918.754 1644.602 1916.273 1641.757 1912.013 C 1638.632 1907.071 1635.712 1902.025 1632.83 1896.939 C 1631.847 1895.22 1630.864 1893.501 1629.88 1891.783 C 1629.21 1890.612 1628.541 1889.441 1627.872 1888.27 C 1624.477 1882.326 1621.033 1876.412 1617.58 1870.501 C 1616.996 1869.502 1616.413 1868.503 1615.812 1867.474 C 1612.127 1861.166 1608.428 1854.867 1604.719 1848.573 C 1600.477 1841.372 1596.272 1834.148 1592.064 1826.927 C 1588.685 1821.132 1585.298 1815.343 1581.892 1809.564 C 1577.257 1801.7 1572.66 1793.814 1568.064 1785.927 C 1564.685 1780.132 1561.298 1774.343 1557.892 1768.564 C 1553.257 1760.7 1548.66 1752.814 1544.064 1744.927 C 1540.685 1739.132 1537.298 1733.343 1533.892 1727.564 C 1529.257 1719.7 1524.66 1711.814 1520.064 1703.927 C 1516.685 1698.132 1513.298 1692.343 1509.892 1686.564 C 1505.257 1678.7 1500.66 1670.814 1496.064 1662.927 C 1492.297 1656.467 1488.517 1650.015 1484.718 1643.573 C 1482.315 1639.496 1479.929 1635.41 1477.552 1631.318 C 1472.269 1622.223 1466.985 1613.137 1461.455 1604.189 C 1456.32 1595.875 1451.447 1587.417 1446.582 1578.944 C 1442.544 1571.914 1438.465 1564.912 1434.33 1557.939 C 1428.06 1547.365 1421.862 1536.75 1415.676 1526.127 C 1412.666 1520.959 1409.655 1515.793 1406.642 1510.626 C 1406.054 1509.619 1405.467 1508.611 1404.861 1507.572 C 1401.161 1501.231 1397.447 1494.899 1393.719 1488.574 C 1390.092 1482.415 1386.491 1476.24 1382.892 1470.064 C 1376.064 1458.352 1369.221 1446.649 1362.283 1435.001 C 1354.881 1422.564 1347.578 1410.081 1340.423 1397.5 C 1336.787 1391.108 1333.149 1384.724 1329.33 1378.439 C 1325.331 1371.851 1321.483 1365.182 1317.642 1358.501 C 1312.399 1349.385 1307.104 1340.303 1301.739 1331.258 C 1297.143 1323.505 1292.598 1315.724 1288.085 1307.923 C 1285.231 1303.005 1282.331 1298.129 1279.306 1293.314 C 1278.742 1292.407 1278.177 1291.499 1277.595 1290.564 C 1276.531 1288.861 1275.453 1287.166 1274.359 1285.481 C 1270.852 1279.846 1270.852 1279.846 1271.076 1275.509 C 1271.345 1274.702 1271.614 1273.895 1271.892 1273.064 C 1271.128 1272.988 1270.364 1272.913 1269.577 1272.834 C 1266.144 1271.849 1265.647 1270.816 1263.939 1267.736 C 1263.411 1266.806 1262.883 1265.876 1262.339 1264.917 C 1261.779 1263.893 1261.219 1262.869 1260.642 1261.814 C 1259.398 1259.61 1258.153 1257.407 1256.908 1255.205 C 1256.248 1254.027 1255.589 1252.849 1254.929 1251.671 C 1251.854 1246.201 1248.658 1240.802 1245.471 1235.396 C 1243.668 1232.335 1241.872 1229.27 1240.076 1226.205 C 1239.548 1225.304 1239.548 1225.304 1239.009 1224.386 C 1234.897 1217.37 1230.803 1210.344 1226.708 1203.318 C 1223.06 1197.06 1219.396 1190.813 1215.718 1184.573 C 1212.091 1178.414 1208.491 1172.239 1204.892 1166.064 C 1199.249 1156.383 1193.582 1146.717 1187.892 1137.064 C 1181.591 1126.374 1175.323 1115.665 1169.074 1104.944 C 1164.036 1096.304 1158.971 1087.68 1153.892 1079.064 C 1147.591 1068.374 1141.323 1057.665 1135.074 1046.944 C 1130.036 1038.304 1124.971 1029.68 1119.892 1021.064 C 1114.202 1011.411 1108.535 1001.745 1102.892 992.064 C 1094.431 977.541 1094.431 977.541 1085.892 963.064 C 1085.323 962.102 1085.323 962.102 1084.743 961.121 C 1083.654 959.285 1082.556 957.455 1081.455 955.626 C 1080.837 954.597 1080.22 953.567 1079.583 952.505 C 1077.962 949.845 1077.962 949.845 1074.892 948.064 C 1071.993 947.849 1069.187 947.753 1066.286 947.746 C 1064.947 947.731 1064.947 947.731 1063.581 947.716 C 1060.566 947.685 1057.55 947.669 1054.535 947.652 C 1052.367 947.633 1050.199 947.614 1048.03 947.594 C 1042.069 947.541 1036.108 947.503 1030.147 947.467 C 1026.352 947.443 1022.558 947.415 1018.764 947.387 C 957.692 946.927 896.619 946.944 835.545 946.992 C 825.029 947 814.512 947.005 803.996 947.009 C 803.24 947.009 802.484 947.01 801.706 947.01 C 797.91 947.011 794.114 947.012 790.318 947.014 C 759.509 947.024 728.701 947.041 697.892 947.064 C 700.132 950.904 702.372 954.745 704.611 958.585 C 705.242 959.665 705.872 960.746 706.521 961.859 C 711.072 969.662 715.633 977.46 720.205 985.251 C 720.913 986.46 721.622 987.669 722.331 988.877 C 724.518 992.606 726.705 996.335 728.892 1000.064 C 731.788 1005.001 734.684 1009.939 737.58 1014.876 C 738.112 1015.785 738.112 1015.785 738.656 1016.712 C 743.978 1025.79 749.286 1034.876 754.584 1043.968 C 759.174 1051.84 763.781 1059.703 768.392 1067.564 C 773.57 1076.391 778.739 1085.222 783.892 1094.064 C 788.984 1102.8 794.09 1111.529 799.205 1120.251 C 799.559 1120.857 799.914 1121.462 800.28 1122.086 C 802.817 1126.412 805.354 1130.738 807.892 1135.064 C 810.788 1140.001 813.684 1144.939 816.58 1149.876 C 816.935 1150.482 817.29 1151.088 817.656 1151.712 C 822.98 1160.793 828.29 1169.883 833.591 1178.979 C 838.118 1186.743 842.658 1194.499 847.205 1202.251 C 847.559 1202.857 847.914 1203.462 848.28 1204.086 C 850.817 1208.412 853.354 1212.738 855.892 1217.064 C 858.788 1222.001 861.684 1226.939 864.58 1231.876 C 864.93 1232.474 865.281 1233.072 865.642 1233.688 C 871.281 1243.306 876.905 1252.932 882.516 1262.567 C 883.05 1263.484 883.584 1264.401 884.134 1265.345 C 884.597 1266.14 885.059 1266.935 885.536 1267.753 C 886.892 1270.133 886.892 1270.133 888.627 1272.546 C 889.892 1275.064 889.892 1275.064 889.769 1277.528 C 888.752 1280.469 887.439 1282.956 885.865 1285.642 C 885.243 1286.712 884.621 1287.781 883.98 1288.883 C 883.311 1290.015 882.643 1291.147 881.955 1292.314 C 881.263 1293.498 880.571 1294.682 879.881 1295.866 C 877.893 1299.27 875.893 1302.668 873.892 1306.064 C 872.983 1307.613 872.074 1309.163 871.165 1310.712 C 869.604 1313.372 868.038 1316.029 866.47 1318.685 C 863.319 1324.028 860.201 1329.391 857.08 1334.751 C 852.604 1342.433 848.108 1350.101 843.58 1357.751 C 829.734 1381.142 816.046 1404.626 802.369 1428.115 C 796.277 1438.572 790.16 1449.014 783.995 1459.428 C 770.682 1481.929 757.524 1504.522 744.369 1527.115 C 737.168 1539.476 729.942 1551.822 722.635 1564.121 C 721.054 1566.79 719.482 1569.465 717.912 1572.141 C 716.891 1573.881 715.866 1575.617 714.839 1577.353 C 713.525 1579.575 712.217 1581.801 710.916 1584.031 C 710.319 1585.035 709.722 1586.04 709.107 1587.076 C 708.582 1587.967 708.057 1588.859 707.517 1589.778 C 705.278 1592.928 703.244 1594.752 699.455 1595.626 C 695.614 1594.784 694.068 1592.144 691.892 1589.064 C 689.385 1585.022 687.043 1580.892 684.705 1576.751 C 684.032 1575.572 683.359 1574.392 682.685 1573.213 C 681.354 1570.883 680.024 1568.551 678.696 1566.219 C 676.44 1562.273 674.144 1558.351 671.83 1554.439 C 667.826 1547.661 663.855 1540.865 659.892 1534.064 C 655.905 1527.223 651.913 1520.385 647.892 1513.564 C 643.872 1506.743 639.879 1499.905 635.892 1493.064 C 630.249 1483.383 624.582 1473.717 618.892 1464.064 C 612.588 1453.369 606.316 1442.655 600.065 1431.929 C 596.686 1426.133 593.298 1420.343 589.892 1414.564 C 585.257 1406.7 580.66 1398.814 576.064 1390.927 C 572.685 1385.132 569.298 1379.343 565.892 1373.564 C 561.257 1365.7 556.66 1357.814 552.064 1349.927 C 548.685 1344.132 545.298 1338.343 541.892 1332.564 C 537.257 1324.7 532.66 1316.814 528.064 1308.927 C 524.685 1303.132 521.298 1297.343 517.892 1291.564 C 513.958 1284.887 510.046 1278.196 506.142 1271.501 C 505.55 1270.486 504.958 1269.47 504.347 1268.424 C 501.344 1263.272 498.342 1258.12 495.341 1252.966 C 489.743 1243.356 484.127 1233.756 478.455 1224.189 C 472.958 1214.918 467.57 1205.587 462.197 1196.244 C 458.978 1190.653 455.738 1185.08 452.392 1179.564 C 448.371 1172.936 444.506 1166.221 440.642 1159.501 C 435.397 1150.382 430.1 1141.298 424.735 1132.249 C 418.999 1122.57 413.337 1112.849 407.676 1103.127 C 404.666 1097.959 401.655 1092.793 398.642 1087.626 C 398.054 1086.619 397.467 1085.611 396.861 1084.572 C 393.161 1078.231 389.447 1071.899 385.719 1065.574 C 382.092 1059.415 378.491 1053.24 374.892 1047.064 C 368.064 1035.352 361.221 1023.649 354.283 1012.001 C 346.46 998.857 338.745 985.662 331.208 972.352 C 328.541 967.651 325.877 962.986 322.935 958.451 C 320.892 955.064 320.892 955.064 320.892 952.064 C 320.232 952.064 319.572 952.064 318.892 952.064 C 318.275 950.939 317.657 949.813 317.021 948.654 C 312.665 940.745 308.252 932.888 303.568 925.169 C 299.962 919.215 296.456 913.205 292.955 907.189 C 288.947 900.306 284.937 893.425 280.892 886.564 C 276.871 879.743 272.879 872.905 268.892 866.064 C 263.249 856.383 257.582 846.717 251.892 837.064 C 245.591 826.374 239.323 815.665 233.074 804.944 C 228.419 796.962 223.743 788.993 219.051 781.032 C 217.905 779.087 216.762 777.14 215.619 775.193 C 211.454 768.101 207.274 761.019 203.076 753.947 C 196.55 742.955 190.056 731.947 183.669 720.873 C 174.832 705.552 165.873 690.301 156.892 675.064 C 155.308 672.377 153.725 669.689 152.142 667.001 C 151.547 665.991 151.547 665.991 150.94 664.96 C 148.356 660.567 145.785 656.167 143.22 651.763 C 142.587 650.676 141.954 649.589 141.301 648.469 C 140.046 646.312 138.791 644.155 137.538 641.997 C 136.964 641.011 136.39 640.025 135.798 639.009 C 135.286 638.128 134.773 637.246 134.246 636.338 C 133.18 634.548 132.048 632.797 130.892 631.064 C 130.697 627.708 130.697 627.708 130.767 623.876 C 130.785 622.604 130.803 621.332 130.822 620.021 C 130.845 619.045 130.868 618.069 130.892 617.064 Z M 1266.226 621.126 C 1266.751 622.004 1267.261 622.856 1267.771 623.709 C 1268.371 624.71 1268.954 625.681 1269.536 626.653 C 1270.188 627.749 1270.821 628.813 1271.454 629.877 C 1278.556 641.763 1285.572 653.7 1292.56 665.654 C 1295.092 669.987 1297.626 674.319 1300.166 678.648 C 1300.536 679.279 1300.896 679.892 1301.255 680.505 C 1301.978 681.738 1302.701 682.97 1303.424 684.202 C 1309.259 694.148 1315.085 704.101 1320.892 714.064 C 1326.045 722.906 1331.214 731.737 1336.392 740.564 C 1341.003 748.425 1345.61 756.288 1350.201 764.162 C 1355.917 773.971 1361.648 783.771 1367.392 793.564 C 1372.003 801.425 1376.61 809.287 1381.2 817.16 C 1386.498 826.252 1391.806 835.338 1397.128 844.416 C 1397.494 845.04 1397.849 845.646 1398.204 846.252 C 1401.1 851.189 1403.996 856.127 1406.892 861.064 C 1409.43 865.39 1411.967 869.716 1414.504 874.042 C 1414.87 874.666 1415.225 875.271 1415.579 875.877 C 1420.126 883.631 1424.668 891.388 1429.195 899.153 C 1439.202 916.322 1449.127 933.548 1459.392 950.564 C 1473.763 974.742 1473.763 974.742 1487.892 999.064 C 1492.627 1007.188 1497.372 1015.305 1502.128 1023.416 C 1502.494 1024.04 1502.849 1024.646 1503.204 1025.252 C 1506.1 1030.189 1508.996 1035.127 1511.892 1040.064 C 1514.43 1044.39 1516.967 1048.716 1519.504 1053.042 C 1519.87 1053.666 1520.225 1054.271 1520.579 1054.877 C 1525.694 1063.599 1530.8 1072.328 1535.892 1081.064 C 1541.045 1089.906 1546.214 1098.737 1551.392 1107.564 C 1556.003 1115.425 1560.61 1123.287 1565.2 1131.16 C 1570.498 1140.252 1575.806 1149.338 1581.128 1158.416 C 1581.494 1159.04 1581.849 1159.646 1582.204 1160.252 C 1585.1 1165.189 1587.996 1170.127 1590.892 1175.064 C 1593.43 1179.391 1595.968 1183.717 1598.505 1188.044 C 1598.87 1188.667 1599.225 1189.272 1599.579 1189.877 C 1604.78 1198.744 1609.968 1207.619 1615.142 1216.502 C 1618.982 1223.095 1622.84 1229.677 1626.73 1236.241 C 1634.163 1248.778 1641.458 1261.391 1648.721 1274.026 C 1649.119 1274.719 1649.506 1275.392 1649.892 1276.064 C 1651.892 1275.064 1651.892 1275.064 1653.043 1273.391 C 1653.481 1272.637 1653.907 1271.905 1654.333 1271.173 C 1654.841 1270.308 1655.333 1269.469 1655.825 1268.629 C 1656.379 1267.672 1656.917 1266.743 1657.454 1265.814 C 1658.634 1263.796 1659.814 1261.778 1660.994 1259.759 C 1663.318 1255.765 1665.646 1251.774 1667.986 1247.788 C 1674.975 1235.892 1681.944 1223.984 1688.892 1212.064 C 1693.627 1203.94 1698.372 1195.823 1703.128 1187.712 C 1703.494 1187.088 1703.849 1186.482 1704.204 1185.877 C 1706.735 1181.56 1709.267 1177.244 1711.798 1172.928 C 1714.7 1167.981 1717.603 1163.034 1720.504 1158.086 C 1720.87 1157.462 1721.225 1156.857 1721.579 1156.252 C 1726.694 1147.529 1731.8 1138.8 1736.892 1130.064 C 1741.682 1121.845 1746.486 1113.634 1751.299 1105.428 C 1756.274 1096.946 1761.247 1088.463 1766.2 1079.968 C 1771.498 1070.876 1776.806 1061.79 1782.128 1052.713 C 1782.494 1052.088 1782.849 1051.482 1783.204 1050.877 C 1786.822 1044.706 1790.44 1038.536 1794.062 1032.369 C 1795.858 1029.312 1797.653 1026.256 1799.447 1023.199 C 1799.811 1022.579 1800.164 1021.978 1800.517 1021.377 C 1805.264 1013.291 1809.981 1005.189 1814.653 997.06 C 1820.104 987.569 1825.617 978.125 1831.267 968.752 C 1836.296 960.412 1841.276 952.047 1846.197 943.643 C 1846.561 943.021 1846.914 942.418 1847.267 941.814 C 1849.063 938.744 1850.859 935.675 1852.653 932.604 C 1855.855 927.126 1859.063 921.652 1862.272 916.179 C 1863.685 913.77 1865.098 911.36 1866.51 908.951 C 1869.361 904.086 1872.213 899.222 1875.065 894.358 C 1882.353 881.934 1889.639 869.509 1896.892 857.064 C 1901.682 848.845 1906.486 840.634 1911.299 832.428 C 1916.274 823.946 1921.247 815.463 1926.2 806.968 C 1931.498 797.876 1936.806 788.79 1942.128 779.712 C 1942.494 779.088 1942.849 778.482 1943.204 777.877 C 1945.735 773.56 1948.267 769.244 1950.798 764.928 C 1953.7 759.981 1956.603 755.034 1959.504 750.086 C 1959.87 749.462 1960.225 748.857 1960.579 748.252 C 1965.694 739.529 1970.8 730.8 1975.892 722.064 C 1980.682 713.845 1985.486 705.634 1990.299 697.428 C 1995.275 688.944 2000.249 680.46 2005.202 671.963 C 2006.891 669.065 2008.581 666.168 2010.271 663.271 C 2011.828 660.603 2013.384 657.935 2014.94 655.266 C 2016.818 652.045 2018.696 648.824 2020.578 645.605 C 2021.328 644.321 2022.079 643.036 2022.829 641.752 C 2023.88 639.948 2024.931 638.145 2025.984 636.343 C 2026.324 635.763 2026.653 635.201 2026.982 634.638 C 2028.267 632.436 2029.573 630.246 2030.892 628.064 C 2033.272 624.324 2035.582 620.694 2037.892 617.064 C 1774.392 617.064 1518.642 617.064 1262.892 617.064 C 1264.925 618.958 1264.925 618.958 1266.226 621.126 Z" style="fill: rgb(255, 255, 255);"/>
    <path d="M 1082.58 1611.314 C 1084.755 1611.368 1084.755 1611.368 1086.892 1612.064 C 1088.629 1613.946 1088.629 1613.946 1090.279 1616.439 C 1091.183 1617.804 1091.183 1617.804 1092.105 1619.197 C 1094.888 1623.66 1097.481 1628.208 1100.017 1632.814 C 1104.362 1640.6 1108.774 1648.336 1113.33 1656.001 C 1117.798 1663.525 1122.239 1671.064 1126.642 1678.626 C 1131.816 1687.509 1137.004 1696.384 1142.205 1705.251 C 1142.559 1705.856 1142.914 1706.461 1143.279 1707.084 C 1145.817 1711.41 1148.354 1715.737 1150.892 1720.064 C 1153.788 1725.001 1156.684 1729.938 1159.58 1734.876 C 1160.113 1735.785 1160.113 1735.785 1160.656 1736.712 C 1165.981 1745.793 1171.29 1754.883 1176.591 1763.978 C 1183.28 1775.45 1190 1786.904 1196.719 1798.358 C 1200.631 1805.028 1204.541 1811.699 1208.451 1818.37 C 1209.511 1820.178 1210.571 1821.986 1211.631 1823.794 C 1212.156 1824.69 1212.156 1824.69 1212.691 1825.604 C 1214.846 1829.279 1217.001 1832.954 1219.157 1836.629 C 1226.648 1849.402 1234.132 1862.178 1241.587 1874.972 C 1244.721 1880.348 1247.862 1885.721 1251.013 1891.087 C 1251.366 1891.687 1251.718 1892.288 1252.082 1892.907 C 1252.437 1893.512 1252.792 1894.117 1253.158 1894.74 C 1253.882 1895.973 1254.606 1897.206 1255.33 1898.439 C 1255.689 1899.05 1256.047 1899.661 1256.417 1900.291 C 1261.47 1908.9 1266.48 1917.534 1271.455 1926.189 C 1277.187 1936.159 1283.025 1946.063 1288.905 1955.948 C 1294.165 1964.802 1299.324 1973.712 1304.456 1982.641 C 1308.935 1990.425 1313.478 1998.168 1318.058 2005.893 C 1321.947 2012.455 1325.803 2019.035 1329.642 2025.626 C 1334.817 2034.509 1340.004 2043.384 1345.205 2052.251 C 1345.559 2052.856 1345.914 2053.461 1346.279 2054.084 C 1348.817 2058.41 1351.354 2062.737 1353.892 2067.064 C 1356.788 2072.001 1359.684 2076.938 1362.58 2081.876 C 1363.113 2082.785 1363.113 2082.785 1363.656 2083.712 C 1368.978 2092.789 1374.286 2101.876 1379.584 2110.967 C 1384.174 2118.84 1388.781 2126.703 1393.392 2134.564 C 1398.57 2143.391 1403.74 2152.222 1408.892 2161.064 C 1416.145 2173.508 1423.431 2185.934 1430.719 2198.358 C 1433.925 2203.825 1437.13 2209.292 1440.335 2214.76 C 1441.39 2216.559 1442.444 2218.358 1443.499 2220.157 C 1446.763 2225.723 1450.026 2231.291 1453.285 2236.86 C 1462.361 2252.411 1462.361 2252.411 1471.58 2267.876 C 1475.855 2274.964 1480.02 2282.114 1484.185 2289.267 C 1488.844 2297.27 1493.52 2305.263 1498.205 2313.251 C 1498.56 2313.857 1498.915 2314.463 1499.281 2315.087 C 1501.094 2318.177 1502.906 2321.268 1504.719 2324.358 C 1507.925 2329.823 1511.129 2335.29 1514.333 2340.756 C 1516.103 2343.775 1517.872 2346.795 1519.642 2349.814 C 1520.351 2351.022 1521.059 2352.23 1521.767 2353.439 C 1522.118 2354.037 1522.468 2354.635 1522.83 2355.251 C 1526.017 2360.689 1526.017 2360.689 1527.08 2362.501 C 1527.788 2363.71 1528.497 2364.918 1529.205 2366.127 C 1530.974 2369.144 1532.742 2372.161 1534.511 2375.178 C 1537.725 2380.662 1540.94 2386.146 1544.157 2391.629 C 1551.65 2404.404 1559.133 2417.183 1566.591 2429.978 C 1573.28 2441.45 1580 2452.904 1586.719 2464.358 C 1589.925 2469.823 1593.129 2475.29 1596.333 2480.756 C 1598.103 2483.775 1599.872 2486.795 1601.642 2489.814 C 1602.351 2491.022 1603.059 2492.23 1603.767 2493.439 C 1604.118 2494.037 1604.468 2494.635 1604.83 2495.251 C 1605.892 2497.064 1606.955 2498.876 1608.017 2500.689 C 1608.368 2501.287 1608.718 2501.885 1609.08 2502.501 C 1609.788 2503.71 1610.497 2504.919 1611.205 2506.127 C 1612.972 2509.141 1614.739 2512.155 1616.506 2515.169 C 1619.743 2520.688 1622.978 2526.209 1626.208 2531.732 C 1627.678 2534.246 1629.149 2536.759 1630.62 2539.273 C 1631.338 2540.5 1632.057 2541.728 1632.775 2542.955 C 1637.932 2551.771 1643.147 2560.55 1648.491 2569.253 C 1648.944 2569.999 1649.398 2570.745 1649.865 2571.513 C 1650.259 2572.156 1650.654 2572.799 1651.06 2573.461 C 1651.892 2575.064 1651.892 2575.064 1651.892 2577.064 C 1652.552 2577.064 1653.212 2577.064 1653.892 2577.064 C 1654.16 2576.35 1654.428 2575.636 1654.704 2574.901 C 1655.919 2572.001 1657.335 2569.381 1658.912 2566.661 C 1659.515 2565.618 1660.118 2564.575 1660.739 2563.5 C 1661.388 2562.387 1662.037 2561.273 1662.705 2560.126 C 1663.386 2558.952 1664.067 2557.777 1664.748 2556.602 C 1669.938 2547.66 1675.19 2538.754 1680.463 2529.861 C 1684.377 2523.253 1688.26 2516.628 1692.142 2510.001 C 1692.5 2509.391 1692.857 2508.781 1693.226 2508.152 C 1695.052 2505.035 1696.877 2501.918 1698.703 2498.801 C 1701.912 2493.323 1705.123 2487.845 1708.335 2482.368 C 1709.393 2480.562 1710.451 2478.757 1711.51 2476.951 C 1714.725 2471.466 1717.94 2465.982 1721.157 2460.498 C 1728.081 2448.693 1735.001 2436.887 1741.892 2425.064 C 1749.145 2412.619 1756.431 2400.194 1763.719 2387.769 C 1766.925 2382.304 1770.129 2376.837 1773.333 2371.371 C 1775.103 2368.352 1776.872 2365.333 1778.642 2362.314 C 1779.351 2361.105 1780.059 2359.897 1780.767 2358.689 C 1782.184 2356.272 1783.601 2353.855 1785.017 2351.439 C 1785.543 2350.541 1785.543 2350.541 1786.08 2349.626 C 1786.788 2348.418 1787.497 2347.209 1788.205 2346 C 1789.974 2342.984 1791.742 2339.967 1793.511 2336.95 C 1796.725 2331.465 1799.94 2325.981 1803.157 2320.498 C 1804.605 2318.029 1806.053 2315.56 1807.501 2313.091 C 1808.22 2311.865 1808.939 2310.638 1809.659 2309.411 C 1813.815 2302.325 1817.961 2295.232 1822.092 2288.131 C 1828.075 2277.846 1834.123 2267.602 1840.205 2257.376 C 1852.108 2237.363 1863.866 2217.266 1875.591 2197.148 C 1880.118 2189.384 1884.659 2181.629 1889.205 2173.876 C 1889.56 2173.271 1889.915 2172.665 1890.28 2172.042 C 1893.182 2167.094 1896.084 2162.147 1898.986 2157.199 C 1901.517 2152.883 1904.049 2148.567 1906.58 2144.251 C 1906.935 2143.645 1907.29 2143.04 1907.656 2142.416 C 1912.978 2133.338 1918.286 2124.252 1923.584 2115.16 C 1928.537 2106.665 1933.51 2098.182 1938.486 2089.7 C 1943.299 2081.494 1948.102 2073.283 1952.892 2065.064 C 1957.984 2056.327 1963.09 2047.599 1968.205 2038.876 C 1968.737 2037.968 1968.737 2037.968 1969.28 2037.042 C 1972.182 2032.094 1975.084 2027.147 1977.986 2022.199 C 1980.517 2017.883 1983.049 2013.567 1985.58 2009.251 C 1985.935 2008.645 1986.29 2008.04 1986.656 2007.416 C 1991.979 1998.337 1997.288 1989.249 2002.587 1980.156 C 2005.721 1974.779 2008.862 1969.407 2012.013 1964.04 C 2012.366 1963.44 2012.718 1962.839 2013.082 1962.221 C 2013.614 1961.313 2013.614 1961.313 2014.158 1960.387 C 2014.882 1959.154 2015.606 1957.922 2016.33 1956.689 C 2016.689 1956.077 2017.047 1955.466 2017.417 1954.837 C 2022.47 1946.227 2027.48 1937.594 2032.455 1928.939 C 2038.187 1918.968 2044.025 1909.064 2049.905 1899.18 C 2055.165 1890.325 2060.324 1881.415 2065.456 1872.486 C 2069.935 1864.702 2074.478 1856.959 2079.058 1849.235 C 2082.947 1842.673 2086.803 1836.092 2090.642 1829.501 C 2095.817 1820.618 2101.004 1811.744 2106.205 1802.876 C 2106.56 1802.27 2106.916 1801.663 2107.282 1801.039 C 2109.094 1797.949 2110.907 1794.859 2112.719 1791.769 C 2114.864 1788.111 2117.009 1784.453 2119.154 1780.794 C 2119.504 1780.197 2119.854 1779.6 2120.215 1778.985 C 2121.274 1777.178 2122.333 1775.371 2123.392 1773.564 C 2127.313 1766.875 2131.234 1760.186 2135.157 1753.498 C 2142.081 1741.693 2149.001 1729.887 2155.892 1718.064 C 2160.984 1709.327 2166.09 1700.599 2171.205 1691.876 C 2171.737 1690.968 2171.737 1690.968 2172.28 1690.042 C 2175.182 1685.094 2178.084 1680.147 2180.986 1675.199 C 2183.16 1671.493 2185.333 1667.787 2187.507 1664.081 C 2188.22 1662.865 2188.933 1661.649 2189.646 1660.434 C 2193.385 1654.061 2197.116 1647.684 2200.826 1641.294 C 2201.45 1640.221 2202.073 1639.147 2202.716 1638.041 C 2203.867 1636.058 2205.017 1634.074 2206.164 1632.088 C 2216.272 1614.684 2216.272 1614.684 2218.892 1612.064 C 2224.624 1611.5 2224.624 1611.5 2226.892 1612.064 C 2229.857 1615.428 2232.157 1619.006 2234.404 1622.876 C 2234.729 1623.433 2235.054 1623.991 2235.389 1624.565 C 2236.457 1626.396 2237.518 1628.23 2238.58 1630.064 C 2239.336 1631.363 2240.092 1632.662 2240.849 1633.96 C 2242.42 1636.656 2243.99 1639.354 2245.558 1642.052 C 2248.804 1647.635 2252.074 1653.206 2255.343 1658.776 C 2257.109 1661.785 2258.874 1664.796 2260.638 1667.806 C 2260.989 1668.404 2261.339 1669.002 2261.7 1669.617 C 2263.837 1673.262 2265.972 1676.907 2268.105 1680.552 C 2269.888 1683.598 2271.671 1686.643 2273.455 1689.689 C 2273.806 1690.289 2274.158 1690.889 2274.52 1691.508 C 2279.655 1700.274 2284.827 1709.018 2290.017 1717.751 C 2295.913 1727.673 2301.711 1737.647 2307.464 1747.653 C 2311.872 1755.314 2316.34 1762.938 2320.847 1770.541 C 2325.301 1778.056 2329.726 1785.588 2334.142 1793.126 C 2334.865 1794.36 2335.588 1795.594 2336.311 1796.828 C 2339.583 1802.413 2342.854 1807.998 2346.124 1813.584 C 2347.9 1816.619 2349.677 1819.654 2351.455 1822.689 C 2351.806 1823.288 2352.157 1823.888 2352.519 1824.506 C 2357.654 1833.273 2362.826 1842.017 2368.017 1850.751 C 2373.907 1860.663 2379.7 1870.627 2385.446 1880.622 C 2389.512 1887.69 2393.619 1894.732 2397.767 1901.751 C 2398.296 1902.65 2398.825 1903.549 2399.37 1904.475 C 2401.769 1908.539 2404.197 1912.574 2406.736 1916.552 C 2407.167 1917.236 2407.597 1917.92 2408.041 1918.625 C 2408.827 1919.868 2409.626 1921.102 2410.443 1922.324 C 2412.172 1925.072 2412.926 1926.671 2412.647 1929.945 C 2411.884 1933.097 2410.885 1935.285 2409.224 1938.056 C 2408.668 1938.996 2408.111 1939.936 2407.538 1940.905 C 2406.933 1941.906 2406.328 1942.907 2405.705 1943.939 C 2404.425 1946.093 2403.145 1948.248 2401.865 1950.403 C 2401.206 1951.505 2400.548 1952.607 2399.869 1953.743 C 2396.755 1958.973 2393.701 1964.238 2390.642 1969.501 C 2384.09 1980.739 2377.506 1991.959 2370.881 2003.153 C 2364.591 2013.781 2358.338 2024.429 2352.124 2035.101 C 2347.709 2042.677 2343.255 2050.23 2338.787 2057.775 C 2334.795 2064.522 2330.837 2071.289 2326.892 2078.064 C 2321.89 2086.654 2316.852 2095.222 2311.787 2103.775 C 2307.795 2110.522 2303.837 2117.289 2299.892 2124.064 C 2294.89 2132.654 2289.852 2141.222 2284.787 2149.775 C 2280.795 2156.522 2276.837 2163.289 2272.892 2170.064 C 2268.419 2177.746 2263.922 2185.414 2259.392 2193.064 C 2254.195 2201.839 2249.045 2210.641 2243.912 2219.454 C 2240.585 2225.165 2237.248 2230.87 2233.892 2236.564 C 2226.159 2249.69 2218.427 2262.821 2210.892 2276.064 C 2202.355 2291.063 2193.578 2305.926 2184.786 2320.777 C 2178.437 2331.509 2172.166 2342.287 2165.892 2353.064 C 2158.56 2365.658 2151.209 2378.239 2143.784 2390.779 C 2137.436 2401.511 2131.166 2412.288 2124.892 2423.064 C 2117.56 2435.658 2110.209 2448.239 2102.784 2460.779 C 2096.436 2471.511 2090.166 2482.288 2083.892 2493.064 C 2076.561 2505.656 2069.211 2518.237 2061.787 2530.775 C 2057.794 2537.522 2053.837 2544.289 2049.892 2551.064 C 2045.419 2558.746 2040.922 2566.414 2036.392 2574.064 C 2031.195 2582.839 2026.045 2591.641 2020.912 2600.454 C 2017.585 2606.165 2014.248 2611.87 2010.892 2617.564 C 2006.872 2624.385 2002.879 2631.223 1998.892 2638.064 C 1992.863 2648.407 1986.804 2658.731 1980.724 2669.045 C 1975.424 2678.038 1970.149 2687.045 1964.892 2696.064 C 1958.863 2706.407 1952.804 2716.731 1946.724 2727.045 C 1941.424 2736.038 1936.149 2745.045 1930.892 2754.064 C 1924.863 2764.407 1918.804 2774.731 1912.724 2785.045 C 1907.424 2794.038 1902.149 2803.045 1896.892 2812.064 C 1890.863 2822.407 1884.804 2832.731 1878.724 2843.045 C 1873.424 2852.038 1868.149 2861.045 1862.892 2870.064 C 1858.966 2876.8 1855.037 2883.533 1851.08 2890.251 C 1846.53 2897.976 1841.99 2905.706 1837.455 2913.439 C 1836.898 2914.388 1836.898 2914.388 1836.33 2915.356 C 1831.912 2922.891 1827.508 2930.435 1823.142 2938.001 C 1818.79 2945.543 1814.369 2953.042 1809.932 2960.533 C 1805.952 2967.256 1802.008 2973.999 1798.08 2980.751 C 1793.082 2989.34 1788.033 2997.897 1782.955 3006.439 C 1777.068 3016.345 1771.276 3026.301 1765.537 3036.294 C 1760.395 3045.23 1755.144 3054.098 1749.873 3062.958 C 1744.689 3071.685 1739.607 3080.466 1734.552 3089.268 C 1729.578 3097.913 1724.508 3106.498 1719.41 3115.07 C 1715.859 3121.043 1712.315 3127.016 1708.892 3133.064 C 1704.798 3140.298 1700.532 3147.43 1696.283 3154.574 C 1691.23 3163.074 1686.251 3171.612 1681.33 3180.189 C 1676.169 3189.167 1670.947 3198.107 1665.642 3207.001 C 1665.01 3208.068 1664.378 3209.135 1663.726 3210.234 C 1663.136 3211.218 1662.547 3212.202 1661.939 3213.216 C 1661.163 3214.515 1661.163 3214.515 1660.372 3215.841 C 1659.008 3217.89 1657.785 3219.497 1655.892 3221.064 C 1653.017 3221.626 1653.017 3221.626 1649.892 3221.064 C 1645.638 3216.606 1642.711 3211.599 1639.705 3206.251 C 1638.729 3204.54 1637.752 3202.829 1636.775 3201.118 C 1636.289 3200.265 1635.804 3199.411 1635.303 3198.531 C 1633.261 3194.96 1631.173 3191.417 1629.08 3187.876 C 1625.057 3181.056 1621.065 3174.218 1617.08 3167.376 C 1612.567 3159.629 1608.028 3151.9 1603.455 3144.189 C 1597.958 3134.918 1592.57 3125.587 1587.197 3116.244 C 1583.978 3110.653 1580.739 3105.079 1577.392 3099.564 C 1573.371 3092.936 1569.507 3086.221 1565.642 3079.501 C 1560.4 3070.387 1555.106 3061.307 1549.744 3052.264 C 1545.095 3044.422 1540.5 3036.55 1535.912 3028.673 C 1532.585 3022.962 1529.248 3017.257 1525.892 3011.564 C 1518.906 2999.707 1511.989 2987.81 1505.06 2975.92 C 1496.5 2961.228 1496.5 2961.228 1487.892 2946.564 C 1483.958 2939.886 1480.046 2933.196 1476.142 2926.501 C 1475.55 2925.486 1474.958 2924.47 1474.348 2923.424 C 1471.344 2918.272 1468.342 2913.119 1465.341 2907.966 C 1459.257 2897.52 1453.147 2887.091 1446.989 2876.688 C 1442.521 2869.137 1438.078 2861.572 1433.642 2854.001 C 1433.285 2853.391 1432.927 2852.781 1432.559 2852.152 C 1430.733 2849.036 1428.907 2845.919 1427.082 2842.801 C 1423.873 2837.323 1420.662 2831.846 1417.451 2826.369 C 1415.681 2823.351 1413.912 2820.332 1412.142 2817.314 C 1411.434 2816.105 1410.726 2814.897 1410.017 2813.689 C 1320.767 2661.439 1320.767 2661.439 1319.705 2659.626 C 1318.996 2658.418 1318.288 2657.209 1317.579 2656 C 1315.811 2652.984 1314.042 2649.967 1312.274 2646.95 C 1309.059 2641.465 1305.844 2635.981 1302.628 2630.498 C 1300.82 2627.416 1299.012 2624.333 1297.205 2621.251 C 1296.674 2620.345 1296.674 2620.345 1296.132 2619.421 C 1291.289 2611.163 1286.461 2602.898 1281.642 2594.626 C 1276.725 2586.185 1271.77 2577.768 1266.792 2569.362 C 1262.132 2561.485 1257.518 2553.581 1252.912 2545.673 C 1249.585 2539.962 1246.248 2534.257 1242.892 2528.564 C 1238.933 2521.847 1235.004 2515.113 1231.08 2508.376 C 1226.543 2500.59 1221.984 2492.818 1217.392 2485.064 C 1209.906 2472.42 1202.515 2459.721 1195.122 2447.023 C 1188.908 2436.352 1182.683 2425.689 1176.392 2415.064 C 1170.106 2404.446 1163.885 2393.79 1157.676 2383.127 C 1149.112 2368.421 1140.534 2353.724 1131.892 2339.064 C 1125.588 2328.369 1119.317 2317.655 1113.065 2306.929 C 1109.686 2301.133 1106.298 2295.343 1102.892 2289.564 C 1094.536 2275.379 1086.214 2261.174 1078.072 2246.864 C 1068.512 2230.137 1058.693 2213.553 1048.881 2196.974 C 1042.591 2186.346 1036.338 2175.698 1030.124 2165.026 C 1026.238 2158.357 1022.325 2151.705 1018.392 2145.064 C 1013.198 2136.293 1008.051 2127.496 1002.921 2118.688 C 997.936 2110.132 992.921 2101.594 987.892 2093.064 C 981.591 2082.374 975.323 2071.665 969.074 2060.944 C 964.428 2052.976 959.761 2045.022 955.078 2037.076 C 953.014 2033.573 950.953 2030.068 948.892 2026.564 C 948.059 2025.147 947.226 2023.73 946.392 2022.314 C 944.726 2019.48 943.059 2016.647 941.392 2013.814 C 940.774 2012.763 940.774 2012.763 940.143 2011.69 C 939.307 2010.268 938.47 2008.846 937.633 2007.423 C 935.601 2003.968 933.568 2000.513 931.533 1997.06 C 926.023 1987.707 920.547 1978.334 915.08 1968.955 C 911.965 1963.611 908.845 1958.27 905.706 1952.94 C 904.886 1951.546 904.068 1950.152 903.252 1948.756 C 901.442 1945.663 899.609 1942.594 897.689 1939.568 C 896.707 1937.988 896.707 1937.988 895.705 1936.376 C 895.134 1935.485 894.563 1934.595 893.974 1933.677 C 892.566 1930.275 892.86 1928.579 893.892 1925.064 C 895.361 1922.216 895.361 1922.216 897.392 1919.001 C 898.217 1917.67 899.04 1916.338 899.861 1915.005 C 900.334 1914.24 900.807 1913.474 901.295 1912.685 C 904.195 1907.926 906.996 1903.108 909.807 1898.296 C 910.906 1896.415 912.006 1894.535 913.107 1892.655 C 914.618 1890.075 916.128 1887.495 917.638 1884.914 C 920.868 1879.395 924.103 1873.879 927.338 1868.362 C 929.106 1865.346 930.874 1862.33 932.642 1859.314 C 933.351 1858.105 934.059 1856.897 934.767 1855.689 C 935.118 1855.091 935.468 1854.492 935.83 1853.876 C 1007.017 1732.439 1007.017 1732.439 1008.08 1730.626 C 1008.788 1729.418 1009.497 1728.209 1010.205 1727.001 C 1011.975 1723.982 1013.745 1720.962 1015.515 1717.943 C 1018.713 1712.488 1021.911 1707.032 1025.105 1701.575 C 1026.888 1698.529 1028.671 1695.484 1030.455 1692.439 C 1030.806 1691.838 1031.158 1691.238 1031.52 1690.619 C 1037.307 1680.741 1043.143 1670.892 1048.994 1661.051 C 1052.358 1655.381 1055.695 1649.697 1058.982 1643.982 C 1059.318 1643.399 1059.653 1642.815 1059.999 1642.215 C 1061.59 1639.446 1063.176 1636.675 1064.758 1633.901 C 1077.047 1612.439 1077.047 1612.439 1082.58 1611.314 Z" style="fill: rgb(255, 255, 255);"/>
  </g>
</svg>